<svg width="136" height="35" viewBox="0 0 136 35" fill="none" xmlns="http://www.w3.org/2000/svg">
<g clip-path="url(#clip0_57_1695)">
<path d="M85.3527 23.166C84.0055 24.7839 81.731 27.3886 79.6821 28.6831C77.1054 30.3021 73.5908 31.2754 69.8419 31.2754C59.3601 31.2754 56.1967 24.3818 56.1967 17.6727C56.1967 10.6399 59.3012 3.23894 68.5558 3.23894C70.0769 3.23894 73.7653 3.28448 76.9892 5.96681C79.9754 8.32586 80.3854 11.0565 80.6782 12.7672L85.3527 12.7519V1.07856H80.6349L79.6821 3.05233C77.6904 1.98787 73.9998 0 67.1474 0C54.1461 0 44.4844 8.00461 44.4844 18.1351C44.4844 27.0642 51.8633 32.2465 59.6535 34.0971C62.2874 34.7449 65.1585 35.0982 67.9686 34.9761C77.5676 34.5578 81.7732 31.9427 85.3527 28.9538" fill="#53616E" fill-opacity="0.8"/>
<path d="M86.5317 1.07861V12.7519L90.0023 12.6858C90.1774 11.0663 90.3957 7.35582 91.6263 6.01414C93.2069 4.34745 95.0802 4.34746 97.0725 4.34746H101.991V26.8331C101.991 28.0375 101.932 29.7009 99.648 30.3021C98.8274 30.4877 98.4175 30.4877 95.5491 30.4877V33.7717H120.029V30.4877C117.512 30.4877 117.043 30.4877 116.282 30.3488C113.471 29.8394 113.471 27.8992 113.471 26.6942V4.34746H118.447C119.971 4.34746 121.787 4.34746 123.133 5.18074C125.067 6.43083 125.24 10.6513 125.475 12.6858L128.947 12.7519V1.07861" fill="#53616E" fill-opacity="0.8"/>
<path fill-rule="evenodd" clip-rule="evenodd" d="M8.12306 26.1385C5.89865 30.0253 4.66809 30.3021 0.97998 30.4876V33.7716H17.4949V30.4876C15.0947 30.4876 14.6265 30.4876 13.9814 30.3021C12.9853 30.072 12.6337 29.5154 12.6337 28.7747C12.6337 28.267 12.8095 27.8048 13.1026 27.3425L23.0864 8.13164L31.4925 27.2497C31.7269 27.8048 31.9027 28.3153 31.9027 28.8665C31.9027 30.4415 30.0276 30.4876 28.8558 30.4876H27.0421V33.7716H51.1121V30.4876C46.8959 30.4876 45.4304 29.8393 43.2059 25.9541L30.848 1.10889H21.9449" fill="#53616E" fill-opacity="0.8"/>
<path d="M33.1745 18.8953C33.3839 18.8074 33.8385 18.9702 33.9861 19.077C34.0539 19.2701 33.7159 19.2452 33.563 19.3673C33.5976 19.5512 33.5423 19.4682 33.6046 19.4883C33.9237 19.4503 35.0983 19.7579 35.7656 20.1502C35.7928 20.3878 35.9382 20.3211 36.0325 20.352C35.9696 20.3314 35.8046 20.3704 35.7634 20.415L35.8991 20.6005C36.0071 20.3509 36.1986 20.7502 36.3027 20.7264C35.3848 21.2261 34.611 21.2586 33.5857 21.2081C33.4196 21.2092 33.0507 21.4181 32.7654 21.2521C32.2706 21.4327 32.0655 21.3351 31.5544 21.397C27.7024 21.9048 24.1611 22.8277 20.2641 24.1688C18.7699 24.6799 17.2346 25.8013 15.704 25.9413C15.3497 25.9326 14.7204 25.4741 14.7464 24.8003C14.7899 23.6024 15.3107 22.6741 17.471 21.1316C18.5719 20.4334 19.8452 19.8523 21.1267 19.3576C24.0966 18.5584 26.9992 17.9507 30.0591 18.3848C31.0042 18.1232 31.6195 18.311 32.4941 18.6577C33.1603 18.661 32.8685 18.7808 33.1745 18.8953Z" fill="#53616E" fill-opacity="0.8"/>
<path fill-rule="evenodd" clip-rule="evenodd" d="M132.848 3.43976V2.52444H133.459C133.77 2.52444 134.103 2.59232 134.103 2.958C134.103 3.41318 133.765 3.43976 133.384 3.43976H132.848ZM132.848 3.82008H133.364L134.145 5.0994H134.644L133.804 3.79998C134.238 3.74523 134.569 3.51411 134.569 2.98513C134.569 2.40243 134.225 2.14418 133.526 2.14418H132.399V5.0994H132.848V3.82008ZM131.301 3.61666C131.301 2.40243 132.216 1.48663 133.39 1.48663C134.548 1.48663 135.465 2.40243 135.465 3.61666C135.465 4.84931 134.548 5.75696 133.39 5.75696C132.216 5.75696 131.301 4.84931 131.301 3.61666ZM133.39 6.185C134.785 6.185 135.982 5.0994 135.982 3.61666C135.982 2.14418 134.785 1.05908 133.39 1.05908C131.979 1.05908 130.784 2.14418 130.784 3.61666C130.784 5.0994 131.979 6.185 133.39 6.185Z" fill="#53616E" fill-opacity="0.8"/>
</g>
<defs>
<clipPath id="clip0_57_1695">
<rect width="134.92" height="35" fill="white" transform="translate(0.97998)"/>
</clipPath>
</defs>
</svg>
