<svg width="24" height="24" viewBox="0 0 24 24" fill="none" xmlns="http://www.w3.org/2000/svg">
<path fill-rule="evenodd" clip-rule="evenodd" d="M15.2191 17.0309C15.1493 16.9612 15.0939 16.8784 15.0561 16.7873C15.0182 16.6962 14.9988 16.5985 14.9988 16.4999C14.9988 16.4012 15.0182 16.3035 15.0561 16.2124C15.0939 16.1213 15.1493 16.0385 15.2191 15.9689L19.1896 11.9999L15.2191 8.03088C15.1494 7.96115 15.0941 7.87837 15.0563 7.78726C15.0186 7.69615 14.9992 7.5985 14.9992 7.49988C14.9992 7.40127 15.0186 7.30362 15.0563 7.21251C15.0941 7.1214 15.1494 7.03861 15.2191 6.96888C15.2889 6.89915 15.3716 6.84384 15.4627 6.8061C15.5539 6.76836 15.6515 6.74893 15.7501 6.74893C15.8487 6.74893 15.9464 6.76836 16.0375 6.8061C16.1286 6.84384 16.2114 6.89915 16.2811 6.96888L20.7811 11.4689C20.851 11.5385 20.9064 11.6213 20.9442 11.7124C20.982 11.8035 21.0015 11.9012 21.0015 11.9999C21.0015 12.0985 20.982 12.1962 20.9442 12.2873C20.9064 12.3784 20.851 12.4612 20.7811 12.5309L16.2811 17.0309C16.2115 17.1007 16.1287 17.1561 16.0376 17.1939C15.9465 17.2318 15.8488 17.2512 15.7501 17.2512C15.6515 17.2512 15.5538 17.2318 15.4627 17.1939C15.3716 17.1561 15.2888 17.1007 15.2191 17.0309Z" fill="#2C5282"/>
<path fill-rule="evenodd" clip-rule="evenodd" d="M20.25 12C20.25 12.1989 20.171 12.3897 20.0303 12.5303C19.8897 12.671 19.6989 12.75 19.5 12.75L3.75 12.75C3.55109 12.75 3.36032 12.671 3.21967 12.5303C3.07902 12.3897 3 12.1989 3 12C3 11.8011 3.07902 11.6103 3.21967 11.4697C3.36032 11.329 3.55109 11.25 3.75 11.25L19.5 11.25C19.6989 11.25 19.8897 11.329 20.0303 11.4697C20.171 11.6103 20.25 11.8011 20.25 12Z" fill="#2C5282"/>
</svg>
