<svg width="217" height="200" viewBox="0 0 217 200" fill="none" xmlns="http://www.w3.org/2000/svg">
<g opacity="0.1">
<g filter="url(#filter0_d_83_807)">
<path d="M45.5751 154.143V111.923C16.4088 110.146 15.4566 88.4392 15.4565 75.6222C15.4565 71.5208 15.5196 62.6821 16.231 36.3727C16.9423 10.0632 36.0666 7.48561 45.5751 7.48558H137.164C174.512 6.15234 165.714 36.4917 166.635 72.1696C167.43 102.991 154.545 110.955 136.584 110.955L95.3709 111.923C89.5909 117.849 75.097 134.052 60.2471 148.366C47.12 161.019 45.5751 159.062 45.5751 154.143Z" fill="#1777CB"/>
<path d="M45.5751 154.143V111.923C16.4088 110.146 15.4566 88.4392 15.4565 75.6222C15.4565 71.5208 15.5196 62.6821 16.231 36.3727C16.9423 10.0632 36.0666 7.48561 45.5751 7.48558H137.164C174.512 6.15234 165.714 36.4917 166.635 72.1696C167.43 102.991 154.545 110.955 136.584 110.955L95.3709 111.923C89.5909 117.849 75.097 134.052 60.2471 148.366C47.12 161.019 45.5751 159.062 45.5751 154.143Z" stroke="#1777CB" stroke-width="0.15"/>
</g>
<g filter="url(#filter1_d_83_807)">
<path d="M117.48 125.966H94.8234L80.5635 139.96H111.64L144.697 172.406C155.07 181.917 158.673 170.03 158.673 163.257V139.96H169.608C194.707 139.96 200.878 120.021 201.298 105.959C201.718 91.8966 200.017 48.7763 199.639 43.4136C198.817 31.7385 181.968 28.9316 176.102 28.9316V43.4136C187.682 43.4136 186.996 50.1756 186.996 56.6362V102.67C186.996 121.977 181.492 125.966 169.608 125.966H143.976L144.552 153.602L117.48 125.966Z" fill="#1777CB"/>
<path d="M117.48 125.966H94.8234L80.5635 139.96H111.64L144.697 172.406C155.07 181.917 158.673 170.03 158.673 163.257V139.96H169.608C194.707 139.96 200.878 120.021 201.298 105.959C201.718 91.8966 200.017 48.7763 199.639 43.4136C198.817 31.7385 181.968 28.9316 176.102 28.9316V43.4136C187.682 43.4136 186.996 50.1756 186.996 56.6362V102.67C186.996 121.977 181.492 125.966 169.608 125.966H143.976L144.552 153.602L117.48 125.966Z" stroke="#1777CB" stroke-width="0.15"/>
</g>
<g filter="url(#filter2_d_83_807)">
<path d="M124.729 69.3083C130.599 69.3083 135.358 64.5514 135.358 58.6833C135.358 52.8153 130.599 48.0583 124.729 48.0583C118.858 48.0583 114.099 52.8153 114.099 58.6833C114.099 64.5514 118.858 69.3083 124.729 69.3083Z" fill="#FDDFDD"/>
<path d="M124.729 68.6833C130.254 68.6833 134.733 64.2062 134.733 58.6833C134.733 53.1605 130.254 48.6833 124.729 48.6833C119.204 48.6833 114.725 53.1605 114.725 58.6833C114.725 64.2062 119.204 68.6833 124.729 68.6833Z" stroke="#FDDFDD" stroke-width="0.15"/>
</g>
<g filter="url(#filter3_d_83_807)">
<path d="M57.6579 69.3083C63.5284 69.3083 68.2875 64.5514 68.2875 58.6833C68.2875 52.8153 63.5284 48.0583 57.6579 48.0583C51.7873 48.0583 47.0283 52.8153 47.0283 58.6833C47.0283 64.5514 51.7873 69.3083 57.6579 69.3083Z" fill="#FDDFDD"/>
<path d="M57.6581 68.6833C63.1833 68.6833 67.6624 64.2062 67.6624 58.6833C67.6624 53.1605 63.1833 48.6833 57.6581 48.6833C52.1329 48.6833 47.6538 53.1605 47.6538 58.6833C47.6538 64.2062 52.1329 68.6833 57.6581 68.6833Z" stroke="#FDDFDD" stroke-width="0.15"/>
</g>
<g filter="url(#filter4_d_83_807)">
<path d="M91.0475 69.3083C96.9181 69.3083 101.677 64.5514 101.677 58.6833C101.677 52.8153 96.9181 48.0583 91.0475 48.0583C85.177 48.0583 80.418 52.8153 80.418 58.6833C80.418 64.5514 85.177 69.3083 91.0475 69.3083Z" fill="#FDDFDD"/>
<path d="M91.0478 68.6833C96.573 68.6833 101.052 64.2062 101.052 58.6833C101.052 53.1605 96.573 48.6833 91.0478 48.6833C85.5225 48.6833 81.0435 53.1605 81.0435 58.6833C81.0435 64.2062 85.5225 68.6833 91.0478 68.6833Z" stroke="#FDDFDD" stroke-width="0.15"/>
</g>
</g>
<defs>
<filter id="filter0_d_83_807" x="14.3813" y="7.36823" width="153.617" height="152.631" filterUnits="userSpaceOnUse" color-interpolation-filters="sRGB">
<feFlood flood-opacity="0" result="BackgroundImageFix"/>
<feColorMatrix in="SourceAlpha" type="matrix" values="0 0 0 0 0 0 0 0 0 0 0 0 0 0 0 0 0 0 127 0" result="hardAlpha"/>
<feOffset dy="1"/>
<feGaussianBlur stdDeviation="0.5"/>
<feColorMatrix type="matrix" values="0 0 0 0 0 0 0 0 0 0 0 0 0 0 0 0 0 0 0.25 0"/>
<feBlend mode="normal" in2="BackgroundImageFix" result="effect1_dropShadow_83_807"/>
<feBlend mode="normal" in="SourceGraphic" in2="effect1_dropShadow_83_807" result="shape"/>
</filter>
<filter id="filter1_d_83_807" x="79.3799" y="28.8566" width="123.06" height="149.171" filterUnits="userSpaceOnUse" color-interpolation-filters="sRGB">
<feFlood flood-opacity="0" result="BackgroundImageFix"/>
<feColorMatrix in="SourceAlpha" type="matrix" values="0 0 0 0 0 0 0 0 0 0 0 0 0 0 0 0 0 0 127 0" result="hardAlpha"/>
<feOffset dy="1"/>
<feGaussianBlur stdDeviation="0.5"/>
<feColorMatrix type="matrix" values="0 0 0 0 0 0 0 0 0 0 0 0 0 0 0 0 0 0 0.25 0"/>
<feBlend mode="normal" in2="BackgroundImageFix" result="effect1_dropShadow_83_807"/>
<feBlend mode="normal" in="SourceGraphic" in2="effect1_dropShadow_83_807" result="shape"/>
</filter>
<filter id="filter2_d_83_807" x="113.099" y="48.0583" width="23.2593" height="23.25" filterUnits="userSpaceOnUse" color-interpolation-filters="sRGB">
<feFlood flood-opacity="0" result="BackgroundImageFix"/>
<feColorMatrix in="SourceAlpha" type="matrix" values="0 0 0 0 0 0 0 0 0 0 0 0 0 0 0 0 0 0 127 0" result="hardAlpha"/>
<feOffset dy="1"/>
<feGaussianBlur stdDeviation="0.5"/>
<feColorMatrix type="matrix" values="0 0 0 0 0 0 0 0 0 0 0 0 0 0 0 0 0 0 0.25 0"/>
<feBlend mode="normal" in2="BackgroundImageFix" result="effect1_dropShadow_83_807"/>
<feBlend mode="normal" in="SourceGraphic" in2="effect1_dropShadow_83_807" result="shape"/>
</filter>
<filter id="filter3_d_83_807" x="46.0283" y="48.0583" width="23.2593" height="23.25" filterUnits="userSpaceOnUse" color-interpolation-filters="sRGB">
<feFlood flood-opacity="0" result="BackgroundImageFix"/>
<feColorMatrix in="SourceAlpha" type="matrix" values="0 0 0 0 0 0 0 0 0 0 0 0 0 0 0 0 0 0 127 0" result="hardAlpha"/>
<feOffset dy="1"/>
<feGaussianBlur stdDeviation="0.5"/>
<feColorMatrix type="matrix" values="0 0 0 0 0 0 0 0 0 0 0 0 0 0 0 0 0 0 0.25 0"/>
<feBlend mode="normal" in2="BackgroundImageFix" result="effect1_dropShadow_83_807"/>
<feBlend mode="normal" in="SourceGraphic" in2="effect1_dropShadow_83_807" result="shape"/>
</filter>
<filter id="filter4_d_83_807" x="79.418" y="48.0583" width="23.2593" height="23.25" filterUnits="userSpaceOnUse" color-interpolation-filters="sRGB">
<feFlood flood-opacity="0" result="BackgroundImageFix"/>
<feColorMatrix in="SourceAlpha" type="matrix" values="0 0 0 0 0 0 0 0 0 0 0 0 0 0 0 0 0 0 127 0" result="hardAlpha"/>
<feOffset dy="1"/>
<feGaussianBlur stdDeviation="0.5"/>
<feColorMatrix type="matrix" values="0 0 0 0 0 0 0 0 0 0 0 0 0 0 0 0 0 0 0.25 0"/>
<feBlend mode="normal" in2="BackgroundImageFix" result="effect1_dropShadow_83_807"/>
<feBlend mode="normal" in="SourceGraphic" in2="effect1_dropShadow_83_807" result="shape"/>
</filter>
</defs>
</svg>
