<svg width="23" height="22" viewBox="0 0 23 22" fill="none" xmlns="http://www.w3.org/2000/svg">
<path d="M11.2208 0C5.14742 0 0.222168 5.04962 0.222168 11.2788C0.222168 16.261 3.37367 20.4877 7.74617 21.9804C8.29617 22.0844 8.49692 21.7361 8.49692 21.437C8.49692 21.1688 8.48729 20.4597 8.48179 19.5188C5.42242 20.1999 4.77617 18.0065 4.77617 18.0065C4.27704 16.7033 3.55517 16.3565 3.55517 16.3565C2.55554 15.6572 3.62942 15.6712 3.62942 15.6712C4.73354 15.7513 5.31379 16.8339 5.31379 16.8339C6.29554 18.5569 7.88917 18.0598 8.51617 17.7706C8.61517 17.0418 8.89979 16.5447 9.21467 16.2624C6.77267 15.9773 4.20417 15.0098 4.20417 10.689C4.20417 9.4575 4.63317 8.45067 5.33717 7.66149C5.22304 7.37643 4.84629 6.22917 5.44442 4.6775C5.44442 4.6775 6.36842 4.37418 8.46942 5.83318C9.34667 5.58323 10.2872 5.45825 11.2235 5.45404C12.1572 5.45965 13.099 5.58323 13.9777 5.83458C16.0773 4.37559 16.9999 4.6789 16.9999 4.6789C17.5994 6.23198 17.2227 7.37783 17.1099 7.66289C17.8153 8.45207 18.2402 9.45891 18.2402 10.6904C18.2402 15.0225 15.6689 15.9759 13.2187 16.2554C13.6133 16.6036 13.9653 17.2917 13.9653 18.3435C13.9653 19.8516 13.9515 21.0677 13.9515 21.437C13.9515 21.7389 14.1495 22.09 14.7078 21.979C19.0734 20.4849 22.2222 16.2596 22.2222 11.2788C22.2222 5.04962 17.2969 0 11.2208 0Z" fill="#424242"/>
</svg>
