<svg width="147" height="35" viewBox="0 0 147 35" fill="none" xmlns="http://www.w3.org/2000/svg">
<g clip-path="url(#clip0_57_1703)">
<path d="M32.3984 15.0171C32.3988 12.6173 34.1016 10.5925 38.1156 10.6214C40.8688 10.657 41.7292 11.2686 41.7292 11.2686L40.7786 13.7901C39.8354 13.4401 39.2199 13.1652 37.9268 13.1429C36.6337 13.1206 35.4793 13.7985 35.6008 14.5857C35.7595 15.5817 37.2324 16.0573 38.4122 16.6689C39.5921 17.2805 40.9454 18.3544 40.9202 20.1612C40.9287 23.7277 37.3693 24.7619 35.1491 24.8064C32.929 24.851 31.5678 24.2776 30.6455 23.7277L31.6972 21.2804C32.7573 21.6672 33.9923 22.228 35.3581 22.2445C36.724 22.2609 37.6332 21.6839 37.6571 20.6804C37.6676 19.5825 35.449 18.7365 34.7985 18.4151C34.148 18.0936 32.4048 16.9979 32.3984 15.0171Z" fill="#53616E" fill-opacity="0.8"/>
<path d="M26.377 24.5635L28.4609 13.3718H31.5638C32.1491 11.5434 33.2041 11.176 34.2334 10.729H22.5822L22.0674 13.3718H25.3663L23.345 24.5635H26.377Z" fill="#53616E" fill-opacity="0.8"/>
<path d="M10.1304 24.5635H19.3407L19.7984 21.9686H13.6963L14.3065 18.784H19.7793L20.237 16.2097H14.8023L15.2981 13.3718H21.0569L21.5909 10.729H12.6856L10.1304 24.5635Z" fill="#53616E" fill-opacity="0.8"/>
<path d="M16.3853 8.46766C16.3853 8.46766 23.4666 -0.106097 36.0645 0.000994953C47.0731 0.0945786 51.5236 6.39573 51.663 12.5484C51.8002 18.603 44.6075 24.5635 44.6075 24.5635C44.6075 24.5635 48.1642 19.5483 48.1162 14.1121C48.0578 7.502 43.5336 2.67846 33.9669 2.51812C24.4761 2.35905 16.3853 8.46766 16.3853 8.46766Z" fill="#53616E" fill-opacity="0.8"/>
<path d="M17.7947 4.69775C11.1042 6.83121 0.848287 14.0988 0.900098 22.5948C0.943786 29.7592 7.49884 34.9853 18.5909 35C35.5758 35.0224 44.264 24.7923 44.264 24.7923C44.264 24.7923 35.545 32.2679 21.1523 32.6854C14.2663 32.8851 4.52752 30.1068 4.67662 21.6634C4.86257 11.1334 17.7947 4.69775 17.7947 4.69775Z" fill="#53616E" fill-opacity="0.8"/>
<path d="M49.49 27.5941H49.1013L48.9061 27.0121C48.8669 26.8966 48.8138 26.8096 48.7466 26.7513C48.6794 26.693 48.5892 26.6638 48.476 26.6638H48.0222V27.5941H47.6636V25.313H48.6189C48.7331 25.313 48.8384 25.3237 48.9346 25.345C49.0309 25.3663 49.1137 25.4019 49.183 25.4518C49.2523 25.5017 49.3062 25.5679 49.3448 25.6503C49.3834 25.7327 49.4028 25.8351 49.4028 25.9573C49.4028 26.1177 49.3618 26.2483 49.2798 26.3493C49.1978 26.4502 49.0817 26.5158 48.9315 26.5461C49.0097 26.5786 49.0761 26.631 49.1306 26.7034C49.1851 26.7757 49.2324 26.8696 49.2726 26.9852L49.49 27.5941ZM48.0222 26.3408H48.5808C48.6601 26.3408 48.7283 26.3341 48.7855 26.3207C48.8426 26.3072 48.8894 26.2859 48.9259 26.2567C48.9624 26.2276 48.9894 26.1897 49.0068 26.1432C49.0243 26.0966 49.033 26.0403 49.033 25.9741C49.033 25.8552 48.9994 25.7664 48.9323 25.7075C48.8651 25.6486 48.7606 25.6192 48.6189 25.6192H48.0222V26.3408Z" fill="#53616E" fill-opacity="0.8"/>
<path d="M50.4044 26.4688C50.4044 27.4798 49.5848 28.2994 48.5738 28.2994C47.5628 28.2994 46.7432 27.4798 46.7432 26.4688C46.7432 25.4578 47.5628 24.6382 48.5738 24.6382C49.5848 24.6382 50.4044 25.4578 50.4044 26.4688Z" stroke="#53616E" stroke-opacity="0.8"/>
<path d="M145.254 32.8007H144.865L144.67 32.2186C144.631 32.1031 144.578 32.0162 144.511 31.9579C144.444 31.8995 144.353 31.8704 144.24 31.8704H143.786V32.8007H143.428V30.5195H144.383C144.497 30.5195 144.603 30.5302 144.699 30.5515C144.795 30.5728 144.878 30.6084 144.947 30.6583C145.016 30.7082 145.07 30.7744 145.109 30.8568C145.148 30.9393 145.167 31.0416 145.167 31.1638C145.167 31.3242 145.126 31.4549 145.044 31.5558C144.962 31.6567 144.846 31.7223 144.696 31.7526C144.774 31.7851 144.84 31.8376 144.895 31.9099C144.949 31.9823 144.997 32.0762 145.037 32.1917L145.254 32.8007ZM143.786 31.5474H144.345C144.424 31.5474 144.493 31.5407 144.55 31.5272C144.607 31.5137 144.654 31.4924 144.69 31.4633C144.727 31.4341 144.754 31.3963 144.771 31.3497C144.788 31.3032 144.797 31.2468 144.797 31.1807C144.797 31.0618 144.764 30.9729 144.696 30.914C144.629 30.8551 144.525 30.8257 144.383 30.8257H143.786V31.5474Z" fill="#53616E" fill-opacity="0.8"/>
<path d="M146.168 31.6754C146.168 32.6864 145.348 33.506 144.337 33.506C143.326 33.506 142.507 32.6864 142.507 31.6754C142.507 30.6643 143.326 29.8447 144.337 29.8447C145.348 29.8447 146.168 30.6643 146.168 31.6754Z" stroke="#53616E" stroke-opacity="0.8"/>
<path d="M121.025 33.5652L127.227 1.30029H145.08L144.163 6.12474H131.812L130.248 14.5387H141.79L140.9 19.1232H129.397L127.605 28.7776H140.442L139.542 33.5652H121.025Z" fill="#53616E" fill-opacity="0.8"/>
<path d="M82.1876 15.9517L93.4002 15.9707L90.2538 32.1413C90.2538 32.1413 85.3526 33.9389 80.4523 33.891C69.7119 33.7861 66.0899 26.9617 66.1159 20.3566C66.1546 10.5205 73.1607 1.07716 86.421 0.98476C90.4208 0.956886 94.4872 2.45308 94.4872 2.45308L92.7519 7.16082C92.7519 7.16082 90.1995 5.7838 85.868 5.80692C76.4688 5.85708 72.0964 13.6877 72.1954 20.3375C72.2623 24.827 74.4124 29.2385 81.3295 29.2237C83.7024 29.2187 85.5056 28.5182 85.5056 28.5182L87.0598 20.3948H81.4535L82.1876 15.9517Z" fill="#53616E" fill-opacity="0.8"/>
<path d="M108.507 1.13701C105.798 1.18599 101.465 1.85782 101.465 1.85782L95.4385 33.5601H100.971L103.447 20.2785L107.152 20.3586C108.688 20.39 110.394 22.1419 110.576 23.5088L111.65 33.5601H117.51C116.89 32.9488 116.709 30.0928 116.549 28.134C116.274 24.7692 116.53 20.1785 112.965 18.4098C116.501 16.747 120.493 14.7763 120.473 9.07927C120.451 2.6918 114.388 1.22442 109.027 1.13701C108.863 1.13431 108.687 1.13374 108.507 1.13701ZM108.98 5.52194C114.216 5.60263 114.673 8.61919 114.66 9.79341C114.613 14.0758 111.14 16.0753 107.072 16.1606L104.248 16.0872L106.197 5.74886C106.197 5.74886 108.257 5.51079 108.98 5.52194Z" fill="#53616E" fill-opacity="0.8"/>
</g>
<defs>
<clipPath id="clip0_57_1703">
<rect width="145.375" height="35" fill="white" transform="translate(0.899902)"/>
</clipPath>
</defs>
</svg>
