<svg width="120" height="35" viewBox="0 0 120 35" fill="none" xmlns="http://www.w3.org/2000/svg">
<path d="M102.017 34.9987C96.1663 35.0374 94.1815 34.2087 91.6553 32.242C89.1292 30.2753 87.9542 27.1408 87.7437 23.1478H95.7366C96.0915 27.2573 98.3709 28.8544 102.193 28.8312C105.165 28.8222 107.831 28.1188 107.517 25.1315C107.31 22.0214 102.59 22.5318 96.465 19.9389C92.1729 18.6615 88.0628 15.2535 88.418 9.93498C88.9589 2.70568 95.4578 0.0270352 101.559 7.14019e-06C108.839 -0.00582526 114.399 3.56136 114.497 11.0232L106.629 10.9139C106.593 6.51381 101.723 6.49975 101.122 6.49164C97.9572 6.38798 96.3912 8.10068 96.4669 9.47075C96.4979 12.0765 99.699 12.7823 102.83 13.7841C108.713 15.6522 115.615 16.7667 115.654 24.6433C115.593 27.7824 114.727 30.1017 112.102 32.2045C110.074 33.7887 106.63 34.9749 102.017 34.9987Z" fill="#53616E" fill-opacity="0.8"/>
<path d="M0.569824 1.42529H9.09864V34.4786H0.569824V1.42529Z" fill="#53616E" fill-opacity="0.8"/>
<path d="M12.707 1.42529H38.1841V8.15194H20.992V14.3441H38.1841V20.9048H20.992V27.6841H38.1841V34.4786H12.707V1.42529Z" fill="#53616E" fill-opacity="0.8"/>
<path d="M41.4644 1.42529H49.8838V27.3779H65.4106V34.4786H41.4644V1.42529Z" fill="#53616E" fill-opacity="0.8"/>
<path d="M59.2256 1.42529H86.6734V8.15194H77.1633V34.4786H68.7743V8.15194H59.2256V1.42529Z" fill="#53616E" fill-opacity="0.8"/>
<path d="M113.672 5.26853V1.99025H112.56V1.32275H115.537V1.99025H114.428V5.26853H113.672Z" fill="#53616E" fill-opacity="0.8"/>
<path d="M116.018 5.26853V1.32275H117.15L117.829 4.01428L118.502 1.32275H119.636V5.26853H118.933V2.16251L118.19 5.26853H117.461L116.72 2.16251V5.26853H116.018Z" fill="#53616E" fill-opacity="0.8"/>
</svg>
