<svg width="23" height="22" viewBox="0 0 23 22" fill="none" xmlns="http://www.w3.org/2000/svg">
<g clip-path="url(#clip0_83_772)">
<path d="M14.8055 8.08306C16.4164 9.69397 16.4164 12.3058 14.8055 13.9167C13.1946 15.5276 10.5828 15.5276 8.97185 13.9167C7.36094 12.3058 7.36094 9.69397 8.97185 8.08306C10.5828 6.47215 13.1946 6.47215 14.8055 8.08306Z" fill="#424242"/>
<path d="M16.7012 0H7.07617C3.66418 0 0.888672 2.77551 0.888672 6.1875V15.8125C0.888672 19.2245 3.66418 22 7.07617 22H16.7012C20.1132 22 22.8887 19.2245 22.8887 15.8125V6.1875C22.8887 2.77551 20.1132 0 16.7012 0ZM11.8887 16.5C8.85601 16.5 6.38867 14.0333 6.38867 11C6.38867 7.96668 8.85601 5.5 11.8887 5.5C14.9213 5.5 17.3887 7.96668 17.3887 11C17.3887 14.0333 14.9213 16.5 11.8887 16.5ZM18.0762 5.5C17.6965 5.5 17.3887 5.19217 17.3887 4.8125C17.3887 4.43275 17.6965 4.125 18.0762 4.125C18.4558 4.125 18.7637 4.43275 18.7637 4.8125C18.7637 5.19217 18.4558 5.5 18.0762 5.5Z" fill="#424242"/>
</g>
<defs>
<clipPath id="clip0_83_772">
<rect width="22" height="22" fill="white" transform="translate(0.888672)"/>
</clipPath>
</defs>
</svg>
