<svg width="64" height="64" viewBox="0 0 64 64" fill="none" xmlns="http://www.w3.org/2000/svg">
<path d="M21.2769 36.9179H19.4636V35.1034C19.4636 34.2311 18.8845 33.5232 18.171 33.5232H16.8788C16.1634 33.5232 15.584 34.2314 15.584 35.1034V36.9175H13.6125C13.2528 36.9013 12.9013 37.0281 12.6349 37.2702C12.3684 37.5123 12.2086 37.8501 12.1904 38.2097V39.5038C12.2087 39.8633 12.3685 40.201 12.635 40.4431C12.9014 40.6852 13.2529 40.8119 13.6125 40.7956H15.584V42.7678C15.5678 43.1276 15.6947 43.4792 15.937 43.7456C16.1793 44.0121 16.5172 44.1718 16.8769 44.1899H18.1706C18.5304 44.1719 18.8683 44.0122 19.1106 43.7457C19.3529 43.4792 19.4798 43.1276 19.4636 42.7678V40.7956H21.2769C22.1493 40.7956 22.8571 40.2166 22.8571 39.5038V38.2112C22.8571 37.4966 22.1493 36.9175 21.2769 36.9175V36.9179ZM22.0952 39.5034C22.0952 39.7541 21.7592 40.0333 21.2769 40.0333H18.7017V42.7674C18.7148 42.9246 18.667 43.0808 18.5681 43.2037C18.4693 43.3266 18.3269 43.4068 18.1706 43.4276H16.8769C16.7206 43.4068 16.5783 43.3266 16.4794 43.2037C16.3806 43.0808 16.3327 42.9246 16.3459 42.7674V40.0333H13.6125C13.4556 40.0465 13.2996 39.9989 13.1767 39.9003C13.0539 39.8018 12.9736 39.6599 12.9523 39.5038V38.2093C12.9734 38.0532 13.0536 37.911 13.1765 37.8123C13.2994 37.7136 13.4555 37.6659 13.6125 37.6791H16.3459V35.1031C16.3459 34.6208 16.6266 34.2848 16.8788 34.2848H18.171C18.4217 34.2848 18.7017 34.6208 18.7017 35.1031V37.6791H21.2769C21.7592 37.6791 22.0952 37.9594 22.0952 38.2109V39.5034ZM49.1428 38.0943C49.5949 38.0943 50.0368 37.9602 50.4127 37.7091C50.7886 37.4579 51.0815 37.1009 51.2545 36.6833C51.4275 36.2656 51.4728 35.806 51.3846 35.3627C51.2964 34.9193 51.0787 34.512 50.7591 34.1923C50.4394 33.8727 50.0321 33.655 49.5887 33.5668C49.1453 33.4786 48.6858 33.5238 48.2681 33.6968C47.8504 33.8699 47.4935 34.1628 47.2423 34.5387C46.9911 34.9146 46.8571 35.3565 46.8571 35.8086C46.8571 36.4148 47.0979 36.9962 47.5266 37.4248C47.9552 37.8535 48.5366 38.0943 49.1428 38.0943ZM49.1428 34.2848C49.4442 34.2848 49.7388 34.3741 49.9894 34.5416C50.24 34.709 50.4353 34.947 50.5506 35.2254C50.666 35.5039 50.6961 35.8103 50.6373 36.1059C50.5785 36.4014 50.4334 36.673 50.2203 36.8861C50.0072 37.0992 49.7357 37.2443 49.4401 37.3031C49.1445 37.3619 48.8381 37.3317 48.5597 37.2164C48.2812 37.1011 48.0432 36.9058 47.8758 36.6552C47.7084 36.4046 47.619 36.11 47.619 35.8086C47.6194 35.4046 47.7801 35.0172 48.0658 34.7315C48.3514 34.4458 48.7388 34.2852 49.1428 34.2848ZM43.0476 38.0943C43.4996 38.0943 43.9416 37.9602 44.3174 37.7091C44.6933 37.4579 44.9863 37.1009 45.1593 36.6833C45.3323 36.2656 45.3776 35.806 45.2894 35.3627C45.2012 34.9193 44.9835 34.512 44.6638 34.1923C44.3442 33.8727 43.9369 33.655 43.4935 33.5668C43.0501 33.4786 42.5905 33.5238 42.1729 33.6968C41.7552 33.8699 41.3982 34.1628 41.1471 34.5387C40.8959 34.9146 40.7619 35.3565 40.7619 35.8086C40.7619 36.4148 41.0027 36.9962 41.4313 37.4248C41.86 37.8535 42.4414 38.0943 43.0476 38.0943ZM43.0476 34.2848C43.349 34.2848 43.6436 34.3741 43.8942 34.5416C44.1447 34.709 44.3401 34.947 44.4554 35.2254C44.5707 35.5039 44.6009 35.8103 44.5421 36.1059C44.4833 36.4014 44.3382 36.673 44.1251 36.8861C43.912 37.0992 43.6404 37.2443 43.3449 37.3031C43.0493 37.3619 42.7429 37.3317 42.4644 37.2164C42.186 37.1011 41.948 36.9058 41.7806 36.6552C41.6131 36.4046 41.5238 36.11 41.5238 35.8086C41.5242 35.4046 41.6848 35.0172 41.9705 34.7315C42.2562 34.4458 42.6436 34.2852 43.0476 34.2848ZM49.1428 44.1895C49.5949 44.1895 50.0368 44.0555 50.4127 43.8043C50.7886 43.5532 51.0815 43.1962 51.2545 42.7785C51.4275 42.3609 51.4728 41.9013 51.3846 41.4579C51.2964 41.0145 51.0787 40.6072 50.7591 40.2876C50.4394 39.9679 50.0321 39.7502 49.5887 39.662C49.1453 39.5738 48.6858 39.6191 48.2681 39.7921C47.8504 39.9651 47.4935 40.2581 47.2423 40.6339C46.9911 41.0098 46.8571 41.4517 46.8571 41.9038C46.8571 42.51 47.0979 43.0914 47.5266 43.5201C47.9552 43.9487 48.5366 44.1895 49.1428 44.1895ZM49.1428 40.38C49.4442 40.38 49.7388 40.4694 49.9894 40.6368C50.24 40.8043 50.4353 41.0422 50.5506 41.3207C50.666 41.5991 50.6961 41.9055 50.6373 42.2011C50.5785 42.4967 50.4334 42.7682 50.2203 42.9813C50.0072 43.1944 49.7357 43.3396 49.4401 43.3983C49.1445 43.4571 48.8381 43.427 48.5597 43.3116C48.2812 43.1963 48.0432 43.001 47.8758 42.7504C47.7084 42.4998 47.619 42.2052 47.619 41.9038C47.6194 41.4998 47.7801 41.1124 48.0658 40.8268C48.3514 40.5411 48.7388 40.3804 49.1428 40.38ZM43.0476 44.1895C43.4996 44.1895 43.9416 44.0555 44.3174 43.8043C44.6933 43.5532 44.9863 43.1962 45.1593 42.7785C45.3323 42.3609 45.3776 41.9013 45.2894 41.4579C45.2012 41.0145 44.9835 40.6072 44.6638 40.2876C44.3442 39.9679 43.9369 39.7502 43.4935 39.662C43.0501 39.5738 42.5905 39.6191 42.1729 39.7921C41.7552 39.9651 41.3982 40.2581 41.1471 40.6339C40.8959 41.0098 40.7619 41.4517 40.7619 41.9038C40.7619 42.51 41.0027 43.0914 41.4313 43.5201C41.86 43.9487 42.4414 44.1895 43.0476 44.1895ZM43.0476 40.38C43.349 40.38 43.6436 40.4694 43.8942 40.6368C44.1447 40.8043 44.3401 41.0422 44.4554 41.3207C44.5707 41.5991 44.6009 41.9055 44.5421 42.2011C44.4833 42.4967 44.3382 42.7682 44.1251 42.9813C43.912 43.1944 43.6404 43.3396 43.3449 43.3983C43.0493 43.4571 42.7429 43.427 42.4644 43.3116C42.186 43.1963 41.948 43.001 41.7806 42.7504C41.6131 42.4998 41.5238 42.2052 41.5238 41.9038C41.5242 41.4998 41.6848 41.1124 41.9705 40.8268C42.2562 40.5411 42.6436 40.3804 43.0476 40.38ZM60.5714 3.04743C60.5714 2.8214 60.5044 2.60044 60.3788 2.4125C60.2532 2.22455 60.0747 2.07807 59.8659 1.99157C59.657 1.90507 59.4273 1.88244 59.2056 1.92654C58.9839 1.97063 58.7802 2.07948 58.6204 2.23931C58.4606 2.39914 58.3517 2.60278 58.3076 2.82447C58.2635 3.04617 58.2862 3.27596 58.3727 3.48479C58.4592 3.69362 58.6056 3.87211 58.7936 3.99768C58.9815 4.12326 59.2025 4.19029 59.4285 4.19029C59.7315 4.18999 60.022 4.06948 60.2363 3.85522C60.4506 3.64096 60.5711 3.35045 60.5714 3.04743ZM58.8571 3.04743C58.8571 2.93442 58.8906 2.82394 58.9534 2.72996C59.0162 2.63599 59.1054 2.56275 59.2098 2.5195C59.3143 2.47625 59.4292 2.46494 59.54 2.48698C59.6508 2.50903 59.7527 2.56346 59.8326 2.64337C59.9125 2.72329 59.9669 2.82511 59.989 2.93595C60.011 3.0468 59.9997 3.1617 59.9565 3.26611C59.9132 3.37052 59.84 3.45977 59.746 3.52256C59.652 3.58535 59.5415 3.61886 59.4285 3.61886C59.277 3.61876 59.1317 3.55853 59.0246 3.45138C58.9174 3.34424 58.8572 3.19896 58.8571 3.04743ZM26.2857 3.04743C26.5117 3.04743 26.7327 2.98041 26.9206 2.85483C27.1085 2.72925 27.255 2.55076 27.3415 2.34193C27.428 2.1331 27.4507 1.90331 27.4066 1.68162C27.3625 1.45992 27.2536 1.25629 27.0938 1.09645C26.934 0.936623 26.7303 0.827776 26.5086 0.783679C26.2869 0.739582 26.0571 0.762214 25.8483 0.848714C25.6395 0.935214 25.461 1.0817 25.3354 1.26964C25.2098 1.45758 25.1428 1.67854 25.1428 1.90458C25.1431 2.20759 25.2636 2.4981 25.4779 2.71236C25.6921 2.92663 25.9827 3.04713 26.2857 3.04743ZM26.2857 1.33315C26.3987 1.33315 26.5092 1.36666 26.6031 1.42945C26.6971 1.49224 26.7703 1.58149 26.8136 1.6859C26.8568 1.79032 26.8682 1.90521 26.8461 2.01606C26.8241 2.1269 26.7696 2.22872 26.6897 2.30864C26.6098 2.38855 26.508 2.44298 26.3971 2.46503C26.2863 2.48707 26.1714 2.47576 26.067 2.43251C25.9626 2.38926 25.8733 2.31602 25.8105 2.22205C25.7478 2.12807 25.7142 2.01759 25.7142 1.90458C25.7143 1.75306 25.7746 1.60777 25.8817 1.50063C25.9889 1.39349 26.1341 1.33325 26.2857 1.33315ZM51.8095 12.1903C51.9602 12.1903 52.1075 12.1456 52.2328 12.0619C52.3581 11.9782 52.4557 11.8592 52.5134 11.72C52.5711 11.5807 52.5861 11.4275 52.5567 11.2797C52.5273 11.132 52.4548 10.9962 52.3482 10.8896C52.2417 10.7831 52.1059 10.7105 51.9581 10.6811C51.8103 10.6517 51.6571 10.6668 51.5179 10.7245C51.3787 10.7821 51.2597 10.8798 51.176 11.0051C51.0923 11.1304 51.0476 11.2777 51.0476 11.4284C51.0478 11.6304 51.1281 11.8241 51.2709 11.9669C51.4138 12.1098 51.6075 12.1901 51.8095 12.1903ZM51.8095 11.0474C51.8848 11.0474 51.9585 11.0698 52.0211 11.1116C52.0838 11.1535 52.1326 11.213 52.1614 11.2826C52.1903 11.3522 52.1978 11.4288 52.1831 11.5027C52.1684 11.5766 52.1321 11.6445 52.0788 11.6978C52.0256 11.751 51.9577 11.7873 51.8838 11.802C51.8099 11.8167 51.7333 11.8092 51.6637 11.7803C51.5941 11.7515 51.5346 11.7027 51.4927 11.64C51.4509 11.5774 51.4285 11.5037 51.4285 11.4284C51.4286 11.3274 51.4688 11.2305 51.5402 11.1591C51.6116 11.0877 51.7085 11.0475 51.8095 11.0474ZM41.5238 3.42839C41.6745 3.42839 41.8218 3.3837 41.9471 3.29998C42.0723 3.21626 42.17 3.09727 42.2277 2.95805C42.2853 2.81883 42.3004 2.66564 42.271 2.51784C42.2416 2.37005 42.1691 2.23429 42.0625 2.12773C41.956 2.02118 41.8202 1.94861 41.6724 1.91922C41.5246 1.88982 41.3714 1.90491 41.2322 1.96257C41.093 2.02024 40.974 2.1179 40.8903 2.24319C40.8065 2.36848 40.7619 2.51579 40.7619 2.66648C40.7621 2.86849 40.8424 3.06217 40.9852 3.20501C41.1281 3.34785 41.3218 3.42818 41.5238 3.42839ZM41.5238 2.28553C41.5991 2.28553 41.6728 2.30787 41.7354 2.34973C41.7981 2.39159 41.8469 2.45109 41.8757 2.5207C41.9045 2.59031 41.9121 2.6669 41.8974 2.7408C41.8827 2.8147 41.8464 2.88258 41.7931 2.93586C41.7399 2.98913 41.672 3.02541 41.5981 3.04011C41.5242 3.05481 41.4476 3.04727 41.378 3.01844C41.3084 2.9896 41.2489 2.94077 41.207 2.87813C41.1652 2.81548 41.1428 2.74183 41.1428 2.66648C41.1429 2.56548 41.1831 2.46864 41.2545 2.39722C41.3259 2.3258 41.4228 2.28563 41.5238 2.28553ZM23.238 18.6665C23.3887 18.6665 23.536 18.6218 23.6613 18.5381C23.7866 18.4544 23.8843 18.3354 23.942 18.1961C23.9996 18.0569 24.0147 17.9037 23.9853 17.7559C23.9559 17.6081 23.8834 17.4724 23.7768 17.3658C23.6702 17.2593 23.5345 17.1867 23.3867 17.1573C23.2389 17.1279 23.0857 17.143 22.9465 17.2007C22.8073 17.2583 22.6883 17.356 22.6045 17.4813C22.5208 17.6066 22.4761 17.7539 22.4761 17.9046C22.4763 18.1066 22.5567 18.3003 22.6995 18.4431C22.8424 18.5859 23.036 18.6663 23.238 18.6665ZM23.238 17.5236C23.3134 17.5236 23.387 17.546 23.4497 17.5878C23.5123 17.6297 23.5612 17.6892 23.59 17.7588C23.6188 17.8284 23.6264 17.905 23.6117 17.9789C23.597 18.0528 23.5607 18.1207 23.5074 18.174C23.4541 18.2272 23.3863 18.2635 23.3124 18.2782C23.2385 18.2929 23.1619 18.2854 23.0923 18.2565C23.0227 18.2277 22.9632 18.1789 22.9213 18.1162C22.8794 18.0536 22.8571 17.9799 22.8571 17.9046C22.8572 17.8036 22.8974 17.7067 22.9688 17.6353C23.0402 17.5639 23.137 17.5237 23.238 17.5236Z" fill="#1777CB"/>
<path d="M0.761905 50.6669C1.18269 50.6669 1.52381 50.3258 1.52381 49.905C1.52381 49.4842 1.18269 49.1431 0.761905 49.1431C0.341116 49.1431 0 49.4842 0 49.905C0 50.3258 0.341116 50.6669 0.761905 50.6669Z" fill="#1777CB"/>
<path d="M4.19041 49.1431H3.04755C2.84548 49.1431 2.65169 49.2233 2.5088 49.3662C2.36592 49.5091 2.28564 49.7029 2.28564 49.905C2.28564 50.107 2.36592 50.3008 2.5088 50.4437C2.65169 50.5866 2.84548 50.6669 3.04755 50.6669H4.19041C4.39248 50.6669 4.58627 50.5866 4.72915 50.4437C4.87204 50.3008 4.95231 50.107 4.95231 49.905C4.95231 49.7029 4.87204 49.5091 4.72915 49.3662C4.58627 49.2233 4.39248 49.1431 4.19041 49.1431ZM60.9523 49.1431H59.8095C59.6074 49.1431 59.4136 49.2233 59.2707 49.3662C59.1278 49.5091 59.0475 49.7029 59.0475 49.905C59.0475 50.107 59.1278 50.3008 59.2707 50.4437C59.4136 50.5866 59.6074 50.6669 59.8095 50.6669H60.9523C61.1544 50.6669 61.3482 50.5866 61.4911 50.4437C61.6339 50.3008 61.7142 50.107 61.7142 49.905C61.7142 49.7029 61.6339 49.5091 61.4911 49.3662C61.3482 49.2233 61.1544 49.1431 60.9523 49.1431Z" fill="#1777CB"/>
<path d="M63.238 50.6669C63.6588 50.6669 63.9999 50.3258 63.9999 49.905C63.9999 49.4842 63.6588 49.1431 63.238 49.1431C62.8172 49.1431 62.4761 49.4842 62.4761 49.905C62.4761 50.3258 62.8172 50.6669 63.238 50.6669Z" fill="#1777CB"/>
<path d="M57.4173 49.1427H51.1888C52.7688 48.1955 54.0772 46.8559 54.9869 45.254C55.8966 43.652 56.3768 41.8421 56.3808 39.9998V38.0951C56.3723 35.4008 55.3476 32.8089 53.5115 30.8372C51.6753 28.8654 49.1629 27.659 46.476 27.4589V27.0475C46.476 25.5743 45.1556 24.3808 43.5267 24.3808H41.8063C40.1773 24.3808 38.857 25.5743 38.857 27.0475V27.4284H31.7891C31.311 25.3846 31.8025 22.5549 34.1244 21.6418C35.2909 21.1835 36.7682 21.2082 38.1968 21.2315C40.9038 21.2764 43.972 21.3267 45.1735 17.8844C45.6337 16.5648 45.089 13.9023 43.6002 13.3564C43.5529 13.3375 43.5022 13.3282 43.4513 13.3292C43.4003 13.3301 43.35 13.3413 43.3035 13.3621C43.2569 13.3828 43.215 13.4127 43.1802 13.45C43.1454 13.4872 43.1184 13.5311 43.1008 13.5789C43.0833 13.6268 43.0755 13.6777 43.078 13.7286C43.0805 13.7796 43.0932 13.8295 43.1153 13.8754C43.1374 13.9213 43.1686 13.9623 43.2068 13.996C43.2451 14.0297 43.2897 14.0554 43.3381 14.0715C44.375 14.452 44.8032 16.6315 44.4539 17.6334C43.4341 20.5553 40.8958 20.5119 38.209 20.4699C36.7065 20.4444 35.1522 20.4197 33.8459 20.9332C31.1823 21.9804 30.5385 25.1039 31.0093 27.4284H25.1427V27.0475C25.1427 25.5743 23.8223 24.3808 22.1933 24.3808H20.473C18.844 24.3808 17.5236 25.5739 17.5236 27.0475V27.4589C14.8368 27.659 12.3243 28.8654 10.4882 30.8372C8.65201 32.8089 7.62734 35.4008 7.61886 38.0951V39.9998C7.62285 41.8421 8.103 43.652 9.01271 45.254C9.92242 46.8559 11.2308 48.1955 12.8109 49.1427H6.58229C6.4739 49.1285 6.36373 49.1377 6.25915 49.1695C6.15457 49.2013 6.05798 49.255 5.97583 49.3272C5.89368 49.3993 5.82786 49.4881 5.78277 49.5877C5.73768 49.6872 5.71436 49.7953 5.71436 49.9046C5.71436 50.0139 5.73768 50.122 5.78277 50.2216C5.82786 50.3211 5.89368 50.4099 5.97583 50.4821C6.05798 50.5542 6.15457 50.6079 6.25915 50.6397C6.36373 50.6716 6.4739 50.6807 6.58229 50.6665H57.417C57.5253 50.6807 57.6355 50.6716 57.7401 50.6397C57.8447 50.6079 57.9413 50.5542 58.0234 50.4821C58.1056 50.4099 58.1714 50.3211 58.2165 50.2216C58.2616 50.122 58.2849 50.0139 58.2849 49.9046C58.2849 49.7953 58.2616 49.6872 58.2165 49.5877C58.1714 49.4881 58.1056 49.3993 58.0234 49.3272C57.9413 49.255 57.8447 49.2013 57.7401 49.1695C57.6355 49.1377 57.5257 49.1285 57.4173 49.1427ZM40.3808 27.0475C40.3808 26.4277 41.0337 25.9046 41.8063 25.9046H43.5267C44.2992 25.9046 44.9522 26.4277 44.9522 27.0475V27.4284H40.3808V27.0475ZM19.0474 27.0475C19.0474 26.4277 19.7004 25.9046 20.473 25.9046H22.1933C22.9659 25.9046 23.6189 26.4273 23.6189 27.0475V27.4284H19.0474V27.0475ZM9.14267 39.9998V38.0951C9.14539 35.6711 10.1095 33.3471 11.8236 31.6331C13.5376 29.9191 15.8615 28.955 18.2855 28.9522H45.7141C48.1381 28.955 50.462 29.9191 52.1761 31.6331C53.8901 33.3471 54.8542 35.6711 54.857 38.0951V39.9998C54.8542 42.4239 53.8901 44.7478 52.1761 46.4618C50.462 48.1758 48.1381 49.14 45.7141 49.1427C43.3869 49.1427 39.3903 49.1427 37.7682 49.1419C36.6817 47.8269 34.0295 44.6734 33.2215 44.2334C32.8068 44.0081 32.3423 43.8903 31.8703 43.8905C31.114 43.8972 30.3887 44.1919 29.8421 44.7145C29.6227 44.916 29.0387 45.5831 26.3152 48.8307L26.0535 49.1423L23.0276 49.1427H18.281C15.8578 49.1386 13.5352 48.1738 11.8222 46.46C10.1092 44.7461 9.14559 42.423 9.14267 39.9998ZM35.7792 49.1427H28.0421C29.1697 47.7995 30.6592 46.0326 30.8722 45.8372C31.0798 45.6279 31.3481 45.4895 31.639 45.4416C31.9298 45.3938 32.2284 45.4391 32.492 45.5709C32.857 45.7701 34.5305 47.6734 35.7792 49.1427Z" fill="#1777CB"/>
<path d="M27.4288 40.7621H36.1907C36.5945 40.7609 36.9813 40.5999 37.2668 40.3144C37.5524 40.0289 37.7133 39.642 37.7145 39.2383V38.8573C37.7133 38.4535 37.5524 38.0666 37.2668 37.7811C36.9813 37.4956 36.5945 37.3347 36.1907 37.3335H27.4288C27.025 37.3347 26.6381 37.4956 26.3526 37.7811C26.0671 38.0666 25.9062 38.4535 25.905 38.8573V39.2383C25.9062 39.642 26.0671 40.0289 26.3526 40.3144C26.6381 40.5999 27.025 40.7609 27.4288 40.7621ZM32.0002 38.0954H36.1907C36.3927 38.0956 36.5864 38.1759 36.7292 38.3188C36.872 38.4616 36.9524 38.6553 36.9526 38.8573V39.2383C36.9524 39.4403 36.872 39.6339 36.7292 39.7768C36.5864 39.9196 36.3927 40 36.1907 40.0002H32.0002V38.0954ZM26.6669 38.8573C26.6671 38.6553 26.7474 38.4616 26.8903 38.3188C27.0331 38.1759 27.2268 38.0956 27.4288 38.0954H31.2383V40.0002H27.4288C27.2268 40 27.0331 39.9196 26.8903 39.7768C26.7474 39.6339 26.6671 39.4403 26.6669 39.2383V38.8573ZM4.41278 24.0043L4.97925 23.2596L4.62154 23.0569L4.25811 23.8912H4.24592L3.8764 23.0626L3.51259 23.2714L4.07297 23.9986V24.0104L3.19678 23.8973V24.3026L4.07906 24.1895V24.2013L3.51259 24.9282L3.8524 25.143L4.24021 24.3026H4.25163L4.60935 25.1369L4.98497 24.9224L4.41278 24.207V24.1952L5.31259 24.3026V23.8973L4.41278 24.0162V24.0043ZM8.86916 10.1979L9.19525 9.76892L8.98954 9.65234L8.78002 10.1327H8.77316L8.56059 9.65539L8.35068 9.77577L8.67373 10.1944V10.2013L8.16897 10.1362V10.3697L8.67716 10.3045V10.3114L8.35068 10.7301L8.54649 10.8535L8.76973 10.3697H8.77659L8.9823 10.8501L9.19868 10.7266L8.86916 10.3144V10.3076L9.38725 10.3697V10.1362L8.86916 10.2047V10.1979ZM61.7145 23.5099V23.1125L60.8318 23.2295V23.2177L61.3876 22.487L61.0368 22.2882L60.6802 23.1064H60.668L60.3057 22.2939L59.9488 22.4988L60.4985 23.212V23.2238L59.6391 23.1125V23.5099L60.5042 23.399V23.4108L59.9488 24.124L60.2821 24.3346L60.6623 23.5099H60.6737L61.0246 24.3285L61.393 24.1182L60.8318 23.4165V23.4047L61.7145 23.5099ZM38.7438 11.4375L38.2646 12.0527L38.5518 12.2344L38.8802 11.5232H38.8897L39.1926 12.2291L39.5103 12.0478L39.0261 11.4424V11.4322L39.7876 11.5232V11.1803L39.0261 11.2809V11.271L39.5053 10.6405L39.2029 10.4691L38.8951 11.175H38.8852L38.5724 10.4741L38.2646 10.6508L38.7389 11.2661V11.276L37.9972 11.1803V11.5232L38.7438 11.4272V11.4375ZM45.0113 52.5716H41.8463C41.6544 52.5865 41.4752 52.6732 41.3445 52.8144C41.2138 52.9557 41.1412 53.141 41.1412 53.3335C41.1412 53.5259 41.2138 53.7113 41.3445 53.8526C41.4752 53.9938 41.6544 54.0805 41.8463 54.0954H45.0113C45.2031 54.0805 45.3823 53.9938 45.5131 53.8526C45.6438 53.7113 45.7164 53.5259 45.7164 53.3335C45.7164 53.141 45.6438 52.9557 45.5131 52.8144C45.3823 52.6732 45.2031 52.5865 45.0113 52.5716ZM22.1541 52.5716H18.9892C18.7973 52.5865 18.6181 52.6732 18.4874 52.8144C18.3566 52.9557 18.284 53.141 18.284 53.3335C18.284 53.5259 18.3566 53.7113 18.4874 53.8526C18.6181 53.9938 18.7973 54.0805 18.9892 54.0954H22.1541C22.346 54.0805 22.5252 53.9938 22.6559 53.8526C22.7866 53.7113 22.8592 53.5259 22.8592 53.3335C22.8592 53.141 22.7866 52.9557 22.6559 52.8144C22.5252 52.6732 22.346 52.5865 22.1541 52.5716ZM39.6193 52.5716H24.3812C24.1791 52.5716 23.9853 52.6519 23.8424 52.7947C23.6995 52.9376 23.6193 53.1314 23.6193 53.3335C23.6193 53.5356 23.6995 53.7294 23.8424 53.8722C23.9853 54.0151 24.1791 54.0954 24.3812 54.0954H30.4535V54.8573H27.4288C27.2267 54.8573 27.0329 54.9376 26.89 55.0805C26.7471 55.2233 26.6669 55.4171 26.6669 55.6192C26.6669 55.8213 26.7471 56.0151 26.89 56.158C27.0329 56.3008 27.2267 56.3811 27.4288 56.3811H36.9526C37.1547 56.3811 37.3485 56.3008 37.4913 56.158C37.6342 56.0151 37.7145 55.8213 37.7145 55.6192C37.7145 55.4171 37.6342 55.2233 37.4913 55.0805C37.3485 54.9376 37.1547 54.8573 36.9526 54.8573H33.5469V54.0954H39.6193C39.8213 54.0954 40.0151 54.0151 40.158 53.8722C40.3009 53.7294 40.3812 53.5356 40.3812 53.3335C40.3812 53.1314 40.3009 52.9376 40.158 52.7947C40.0151 52.6519 39.8213 52.5716 39.6193 52.5716Z" fill="#424242"/>
</svg>
