<svg width="23" height="22" viewBox="0 0 23 22" fill="none" xmlns="http://www.w3.org/2000/svg">
<g clip-path="url(#clip0_83_779)">
<path d="M20.6887 0H3.08867C1.87867 0 0.888672 0.99 0.888672 2.2V19.8C0.888672 21.01 1.87867 22 3.08867 22H20.6887C21.8987 22 22.8887 21.01 22.8887 19.8V2.2C22.8887 0.99 21.8987 0 20.6887 0ZM7.48867 18.7H4.18867V8.8H7.48867V18.7ZM5.83867 6.93C4.73867 6.93 3.85867 6.05 3.85867 4.95C3.85867 3.85 4.73867 2.97 5.83867 2.97C6.93867 2.97 7.81867 3.85 7.81867 4.95C7.81867 6.05 6.93867 6.93 5.83867 6.93ZM19.5887 18.7H16.2887V12.87C16.2887 11.99 15.5187 11.22 14.6387 11.22C13.7587 11.22 12.9887 11.99 12.9887 12.87V18.7H9.68867V8.8H12.9887V10.12C13.5387 9.24 14.7487 8.58 15.7387 8.58C17.8287 8.58 19.5887 10.34 19.5887 12.43V18.7Z" fill="#424242"/>
</g>
<defs>
<clipPath id="clip0_83_779">
<rect width="22" height="22" fill="white" transform="translate(0.888672)"/>
</clipPath>
</defs>
</svg>
