<svg width="159" height="32" viewBox="0 0 159 32" fill="none" xmlns="http://www.w3.org/2000/svg">
<path d="M28.0901 10.5729C30.931 9.38971 33.0661 6.85045 33.6928 3.7635C33.8188 3.15431 33.8832 2.52755 33.8832 1.88029V0H0V1.88321C0 2.52755 0.0644335 3.15724 0.190372 3.76643C0.817133 6.85045 2.95222 9.38971 5.79315 10.5759C6.02453 10.6725 6.25883 10.7604 6.50192 10.8365C6.74208 10.9156 6.9881 10.983 7.23705 11.0416L6.90902 11.7357L6.581 12.4269L0.392458 25.4131C0.275307 25.6797 0.184514 25.9579 0.120081 26.2479C0.0410031 26.5847 0.00292879 26.9361 0.00292879 27.2934C0.00292879 27.6156 0.0351455 27.929 0.0966502 28.2336C0.205016 28.7637 0.398316 29.2586 0.670694 29.7097C1.49076 31.0804 2.9903 32 4.7095 32H9.41607C11.7503 32 13.944 31.0891 15.8448 29.49C16.0381 29.3319 16.2226 29.1649 16.4071 28.9892C16.5916 28.8193 16.7703 28.6377 16.946 28.4532C17.1188 28.6377 17.3004 28.8164 17.482 28.9863C17.6665 29.162 17.8539 29.3289 18.0443 29.4871C19.9451 31.0862 22.1388 31.9971 24.4759 31.9971H29.1825C30.8988 31.9971 32.3983 31.0774 33.2213 29.7068C33.4937 29.2557 33.687 28.7608 33.7953 28.2306C33.8569 27.926 33.8891 27.6127 33.8891 27.2905C33.8891 26.9303 33.851 26.5817 33.7719 26.2449C33.7075 25.955 33.6167 25.6738 33.4995 25.4102L27.311 12.421L26.983 11.7298L26.655 11.0357C26.9039 10.9771 27.1499 10.9098 27.3901 10.8307C27.6302 10.7545 27.8675 10.6637 28.0988 10.57L28.0901 10.5729ZM14.1578 26.0516C13.9733 26.2361 13.7858 26.4089 13.5925 26.57C12.3331 27.6361 10.9127 28.2336 9.41314 28.2336H4.70657C4.70657 28.2336 4.69779 28.2336 4.69193 28.2336C3.98902 28.2336 3.54091 27.4779 3.84258 26.8453L9.85539 14.2984L10.5495 12.8515L11.2964 11.2934V12.2336C11.2964 12.4942 11.2993 12.7549 11.3081 13.0126C11.3198 13.5427 11.3461 14.067 11.3901 14.5825C11.6683 18.1117 12.5675 21.3538 13.9176 24.063C14.0406 24.309 14.1666 24.5491 14.2954 24.7864C14.4243 25.0207 14.5561 25.2521 14.6938 25.4805C14.521 25.6826 14.3423 25.873 14.1607 26.0516H14.1578ZM24.4701 7.52993H18.8234V12.2365C18.8234 14.9368 18.4309 17.4761 17.7368 19.7079C18.3137 21.4183 19.0752 22.9061 19.9685 24.0659C21.3187 21.3597 22.2178 18.1175 22.4961 14.5913C22.5371 14.0729 22.5634 13.5486 22.5781 13.0185C22.5869 12.7608 22.5898 12.5001 22.5898 12.2394V11.2993L23.3366 12.8574L24.0308 14.3013L30.0465 26.8629C30.3511 27.5014 29.8883 28.2394 29.1796 28.2424H24.473C22.9705 28.2424 21.5501 27.6449 20.2907 26.5759C20.0974 26.4148 19.9099 26.242 19.7254 26.0575C19.5438 25.8788 19.3681 25.6884 19.1953 25.4893C18.3284 24.4935 17.5698 23.2576 16.9431 21.84C16.8025 21.5208 16.6678 21.1957 16.5389 20.8589C16.3983 20.4869 16.2665 20.1091 16.1464 19.7166C15.4523 17.4849 15.0599 14.9456 15.0599 12.2453V7.53871H9.41314C6.95588 7.53871 4.86473 5.96888 4.0886 3.77522H29.7946C29.0214 5.96888 26.9303 7.53871 24.4701 7.53871V7.52993Z" fill="#1777CB"/>
<path d="M42.1247 29.7681V30.3509H41.1055V25.0088H42.1247V27.2522C42.3297 26.9008 42.7573 26.5903 43.2991 26.5903C44.1983 26.5903 44.9012 27.2581 44.9012 28.4736V28.5292C44.9012 29.7446 44.2129 30.4271 43.2991 30.4271C42.7309 30.4271 42.3151 30.1459 42.1247 29.7651V29.7681ZM43.8673 28.538V28.4823C43.8673 27.7384 43.5012 27.3723 42.9887 27.3723C42.4761 27.3723 42.0895 27.7443 42.0895 28.4823V28.538C42.0895 29.276 42.441 29.6334 42.9975 29.6334C43.5539 29.6334 43.8702 29.2526 43.8702 28.538H43.8673Z" fill="#1777CB"/>
<path d="M46.5879 29.979L45.1265 26.6753H46.2218L47.1151 28.8836L47.9381 26.6753H48.9163L46.9277 31.6045H45.9436L46.5909 29.9819L46.5879 29.979Z" fill="#1777CB"/>
<path d="M51.1776 29.2612V27.3985H50.7061V26.6751H51.1776V25.8813H52.191V26.6751H52.9642V27.3985H52.191V29.1704C52.191 29.4662 52.3374 29.6068 52.5981 29.6068C52.7533 29.6068 52.8646 29.5863 52.9847 29.5365V30.3243C52.8441 30.3741 52.6391 30.4239 52.3667 30.4239C51.5935 30.4239 51.1776 30.0314 51.1776 29.2641V29.2612Z" fill="#1777CB"/>
<path d="M53.4473 28.5585V28.5028C53.4473 27.343 54.2703 26.5903 55.3393 26.5903C56.2882 26.5903 57.1317 27.1468 57.1317 28.4589V28.7401H54.4811C54.5104 29.3522 54.8384 29.7036 55.3949 29.7036C55.8664 29.7036 56.0978 29.4986 56.1623 29.1911H57.1258C57.0057 29.9848 56.3731 30.4271 55.3686 30.4271C54.2585 30.4271 53.4502 29.73 53.4502 28.5585H53.4473ZM56.1388 28.1162C56.1037 27.5598 55.8225 27.2932 55.3363 27.2932C54.8794 27.2932 54.569 27.5949 54.4928 28.1162H56.1388Z" fill="#1777CB"/>
<path d="M57.5684 29.197H58.5173C58.5583 29.5279 58.7223 29.7183 59.1646 29.7183C59.557 29.7183 59.7415 29.5718 59.7415 29.317C59.7415 29.0622 59.5248 28.9597 58.9976 28.8806C58.0194 28.7342 57.6416 28.453 57.6416 27.7355C57.6416 26.9681 58.3445 26.5903 59.0972 26.5903C59.9114 26.5903 60.5235 26.8861 60.6143 27.7296H59.68C59.6244 27.428 59.4545 27.2874 59.103 27.2874C58.7721 27.2874 58.5817 27.4426 58.5817 27.6681C58.5817 27.8936 58.7575 27.9903 59.2905 28.0694C60.2101 28.2041 60.7168 28.4355 60.7168 29.2233C60.7168 30.0112 60.1398 30.4329 59.1704 30.4329C58.201 30.4329 57.6035 29.9965 57.5684 29.2028V29.197Z" fill="#1777CB"/>
<path d="M61.5165 29.2612V27.3985H61.0449V26.6751H61.5165V25.8813H62.5298V26.6751H63.303V27.3985H62.5298V29.1704C62.5298 29.4662 62.6763 29.6068 62.9369 29.6068C63.0922 29.6068 63.2034 29.5863 63.3235 29.5365V30.3243C63.1829 30.3741 62.9779 30.4239 62.7056 30.4239C61.9324 30.4239 61.5165 30.0314 61.5165 29.2641V29.2612Z" fill="#1777CB"/>
<path d="M65.3472 28.5585V28.5028C65.3472 27.343 66.1702 26.5903 67.2392 26.5903C68.1881 26.5903 69.0316 27.1468 69.0316 28.4589V28.7401H66.381C66.4103 29.3522 66.7383 29.7036 67.2948 29.7036C67.7664 29.7036 67.9977 29.4986 68.0622 29.1911H69.0257C68.9057 29.9848 68.273 30.4271 67.2685 30.4271C66.1584 30.4271 65.3501 29.73 65.3501 28.5585H65.3472ZM68.0387 28.1162C68.0036 27.5598 67.7224 27.2932 67.2362 27.2932C66.7794 27.2932 66.4689 27.5949 66.3927 28.1162H68.0387Z" fill="#1777CB"/>
<path d="M70.4518 28.4736L69.2773 26.6753H70.443L71.1312 27.7794L71.8049 26.6753H72.8592L71.6848 28.3974L72.9793 30.3509H71.8049L71.0317 29.115L70.238 30.3509H69.1895L70.4488 28.4736H70.4518Z" fill="#1777CB"/>
<path d="M73.6766 29.2612V27.3985H73.2051V26.6751H73.6766V25.8813H74.69V26.6751H75.4632V27.3985H74.69V29.1704C74.69 29.4662 74.8364 29.6068 75.0971 29.6068C75.2523 29.6068 75.3636 29.5863 75.4837 29.5365V30.3243C75.3431 30.3741 75.1381 30.4239 74.8657 30.4239C74.0925 30.4239 73.6766 30.0314 73.6766 29.2641V29.2612Z" fill="#1777CB"/>
<path d="M76.1719 26.6753H77.1911V27.3782C77.4225 26.8862 77.7827 26.6255 78.3802 26.6196V27.5686C77.6275 27.5627 77.1911 27.8087 77.1911 28.5116V30.3538H76.1719V26.6782V26.6753Z" fill="#1777CB"/>
<path d="M78.7373 29.3317C78.7373 28.4735 79.5251 28.1514 80.6498 28.1514H81.0657V28.0049C81.0657 27.5685 80.931 27.3313 80.4682 27.3313C80.067 27.3313 79.8854 27.5363 79.8415 27.8526H78.8779C78.9423 26.9799 79.6306 26.5933 80.5297 26.5933C81.4289 26.5933 82.0703 26.9594 82.0703 27.9581V30.3538H81.0803V29.9116C80.8695 30.2074 80.5473 30.4329 79.9703 30.4329C79.3026 30.4329 78.7402 30.1107 78.7402 29.3375L78.7373 29.3317ZM81.0657 29.0652V28.7547H80.6732C80.0816 28.7547 79.739 28.8806 79.739 29.276C79.739 29.5426 79.9 29.7183 80.272 29.7183C80.723 29.7183 81.0657 29.4723 81.0657 29.0652Z" fill="#1777CB"/>
<path d="M82.7178 28.5526V28.497C82.7178 27.343 83.5554 26.5933 84.6566 26.5933C85.7579 26.5933 86.5896 27.3313 86.5896 28.4765V28.5321C86.5896 29.6919 85.752 30.43 84.6508 30.43C83.5496 30.43 82.7178 29.6978 82.7178 28.5526ZM85.5587 28.538V28.4882C85.5587 27.7853 85.2278 27.3635 84.6596 27.3635C84.0914 27.3635 83.7604 27.7706 83.7604 28.4735V28.5292C83.7604 29.2321 84.0826 29.6539 84.6596 29.6539C85.2365 29.6539 85.5587 29.2321 85.5587 28.5351V28.538Z" fill="#1777CB"/>
<path d="M87.272 26.6753H88.2912V27.3782C88.5226 26.8862 88.8828 26.6255 89.4803 26.6196V27.5686C88.7276 27.5627 88.2912 27.8087 88.2912 28.5116V30.3538H87.272V26.6782V26.6753Z" fill="#1777CB"/>
<path d="M89.8584 28.5643V28.5087C89.8584 27.2991 90.5554 26.5903 91.4751 26.5903C92.0667 26.5903 92.4299 26.851 92.6349 27.223V25.0088H93.6483V30.3509H92.6349V29.7388C92.4445 30.1107 91.9964 30.4271 91.4546 30.4271C90.5613 30.4271 89.8584 29.7886 89.8584 28.5643ZM92.6642 28.5292V28.4736C92.6642 27.7414 92.342 27.3694 91.7855 27.3694C91.2291 27.3694 90.901 27.756 90.901 28.4882V28.5438C90.901 29.276 91.2525 29.6334 91.7592 29.6334C92.2922 29.6334 92.6671 29.276 92.6671 28.5292H92.6642Z" fill="#1777CB"/>
<path d="M94.5063 25.6209C94.5063 25.3046 94.7582 25.0645 95.0833 25.0645C95.4084 25.0645 95.6662 25.3046 95.6662 25.6209C95.6662 25.9372 95.4143 26.1774 95.0833 26.1774C94.7524 26.1774 94.5063 25.9372 94.5063 25.6209ZM94.5825 26.6753H95.5959V30.3509H94.5825V26.6753Z" fill="#1777CB"/>
<path d="M96.5298 26.6753H97.549V27.2581C97.7306 26.892 98.1318 26.5903 98.744 26.5903C99.4674 26.5903 99.9799 27.0267 99.9799 28.0108V30.3509H98.9607V28.1572C98.9607 27.6593 98.7645 27.4192 98.3134 27.4192C97.8624 27.4192 97.5461 27.6857 97.5461 28.2275V30.3509H96.5269V26.6753H96.5298Z" fill="#1777CB"/>
<path d="M100.613 29.3317C100.613 28.4735 101.401 28.1514 102.525 28.1514H102.941V28.0049C102.941 27.5685 102.806 27.3313 102.344 27.3313C101.942 27.3313 101.761 27.5363 101.717 27.8526H100.753C100.818 26.9799 101.506 26.5933 102.405 26.5933C103.304 26.5933 103.946 26.9594 103.946 27.9581V30.3538H102.956V29.9116C102.745 30.2074 102.423 30.4329 101.846 30.4329C101.178 30.4329 100.616 30.1107 100.616 29.3375L100.613 29.3317ZM102.941 29.0652V28.7547H102.549C101.957 28.7547 101.614 28.8806 101.614 29.276C101.614 29.5426 101.776 29.7183 102.147 29.7183C102.599 29.7183 102.941 29.4723 102.941 29.0652Z" fill="#1777CB"/>
<path d="M104.769 25.6209C104.769 25.3046 105.02 25.0645 105.346 25.0645C105.671 25.0645 105.928 25.3046 105.928 25.6209C105.928 25.9372 105.676 26.1774 105.346 26.1774C105.015 26.1774 104.769 25.9372 104.769 25.6209ZM104.845 26.6753H105.858V30.3509H104.845V26.6753Z" fill="#1777CB"/>
<path d="M106.792 26.6753H107.812V27.3782C108.043 26.8862 108.403 26.6255 109.001 26.6196V27.5686C108.248 27.5627 107.812 27.8087 107.812 28.5116V30.3538H106.792V26.6782V26.6753Z" fill="#1777CB"/>
<path d="M109.373 28.5585V28.5028C109.373 27.343 110.196 26.5903 111.265 26.5903C112.213 26.5903 113.057 27.1468 113.057 28.4589V28.7401H110.406C110.436 29.3522 110.764 29.7036 111.32 29.7036C111.792 29.7036 112.023 29.4986 112.088 29.1911H113.051C112.931 29.9848 112.298 30.4271 111.294 30.4271C110.184 30.4271 109.375 29.73 109.375 28.5585H109.373ZM112.064 28.1162C112.029 27.5598 111.748 27.2932 111.262 27.2932C110.805 27.2932 110.494 27.5949 110.418 28.1162H112.064Z" fill="#1777CB"/>
<path d="M42.9389 13.5047V6.72158H41.1055V3.17188H42.9389V0H48.1492V3.17188H51.1483V6.72158H48.1492V13.0097C48.1492 14.1168 48.7028 14.6118 49.6927 14.6118C50.2755 14.6118 50.7119 14.5239 51.1776 14.3511V18.3108C50.5069 18.4865 49.5199 18.7472 48.2957 18.7472C44.8602 18.7472 42.9389 17.0895 42.9389 13.5076V13.5047Z" fill="#1777CB"/>
<path d="M52.7476 10.9741V10.7427C52.7476 5.8516 56.3851 2.76758 60.9833 2.76758C65.1451 2.76758 68.7241 5.15454 68.7241 10.6255V11.9933H58.0135C58.16 14.0024 59.3227 15.1652 61.1854 15.1652C62.9017 15.1652 63.631 14.3802 63.833 13.361H68.7241C68.2584 16.7965 65.6108 18.7471 61.0097 18.7471C56.4086 18.7471 52.7446 15.953 52.7446 10.977L52.7476 10.9741ZM63.6632 9.05277C63.5753 7.21934 62.6732 6.20012 60.9863 6.20012C59.4135 6.20012 58.3386 7.21934 58.075 9.05277H63.6632Z" fill="#1777CB"/>
<path d="M70.0918 13.5631H74.895C75.0707 14.6702 75.5657 15.2794 77.0477 15.2794C78.3276 15.2794 78.9104 14.7844 78.9104 14.0288C78.9104 13.2732 78.1841 12.951 76.087 12.661C72.0131 12.1368 70.2939 10.9448 70.2939 7.76996C70.2939 4.39306 73.293 2.76465 76.8134 2.76465C80.5681 2.76465 83.1864 4.04453 83.5379 7.68502H78.8225C78.6175 6.6658 78.0669 6.17084 76.872 6.17084C75.677 6.17084 75.1557 6.6658 75.1557 7.36285C75.1557 8.05991 75.8527 8.38208 77.7184 8.61345C81.9388 9.1377 83.9772 10.2448 83.9772 13.5045C83.9772 17.1128 81.3003 18.7441 77.0799 18.7441C72.8595 18.7441 70.2119 16.94 70.0947 13.5631H70.0918Z" fill="#1777CB"/>
<path d="M86.7978 13.5047V6.72158H84.9644V3.17188H86.7978V0H92.0081V3.17188H95.0072V6.72158H92.0081V13.0097C92.0081 14.1168 92.5616 14.6118 93.5516 14.6118C94.1344 14.6118 94.5708 14.5239 95.0365 14.3511V18.3108C94.3658 18.4865 93.3788 18.7472 92.1545 18.7472C88.7191 18.7472 86.7978 17.0895 86.7978 13.5076V13.5047Z" fill="#1777CB"/>
<path d="M97.3618 8.12158H105.513V12.052H97.3618V8.12158Z" fill="#1777CB"/>
<path d="M107.665 14.1752C107.665 10.5962 110.693 9.19921 115.757 9.19921H117.213V8.85068C117.213 7.39507 116.864 6.43443 115.204 6.43443C113.777 6.43443 113.253 7.27792 113.136 8.23856H108.245C108.479 4.57171 111.358 2.76758 115.52 2.76758C119.682 2.76758 122.388 4.48385 122.388 8.53144V18.3986H117.324V16.6237C116.598 17.7308 115.256 18.75 112.814 18.75C110.078 18.75 107.662 17.4115 107.662 14.1811L107.665 14.1752ZM117.213 13.0681V12.1368H115.845C113.751 12.1368 112.82 12.5439 112.82 13.7945C112.82 14.6673 113.403 15.2208 114.624 15.2208C116.109 15.2208 117.213 14.3773 117.213 13.0681Z" fill="#1777CB"/>
<path d="M124.544 10.9741V10.7427C124.544 5.6788 128.182 2.76758 132.665 2.76758C136.391 2.76758 139.826 4.39892 140.116 9.02641H135.225C134.991 7.60009 134.294 6.81517 132.78 6.81517C130.946 6.81517 129.868 8.12434 129.868 10.687V10.9213C129.868 13.569 130.888 14.9367 132.868 14.9367C134.323 14.9367 135.342 14.0639 135.515 12.4033H140.201C140.055 16.2459 137.466 18.75 132.545 18.75C128.006 18.75 124.541 16.1024 124.541 10.9799L124.544 10.9741Z" fill="#1777CB"/>
<path d="M141.51 10.9741V10.7427C141.51 5.8516 145.148 2.76758 149.746 2.76758C153.908 2.76758 157.49 5.15454 157.49 10.6255V11.9933H146.779C146.926 14.0024 148.088 15.1652 149.951 15.1652C151.667 15.1652 152.397 14.3802 152.599 13.361H157.49C157.024 16.7965 154.376 18.7471 149.775 18.7471C145.174 18.7471 141.51 15.953 141.51 10.977V10.9741ZM152.426 9.05277C152.338 7.21934 151.436 6.20012 149.749 6.20012C148.176 6.20012 147.101 7.21934 146.838 9.05277H152.426Z" fill="#1777CB"/>
</svg>
