<svg width="48" height="48" viewBox="0 0 48 48" fill="none" xmlns="http://www.w3.org/2000/svg">
<g opacity="0.3">
<path d="M9.6002 42C8.8002 42 8.0002 41.4 7.60019 40.6V34.8C7.60019 34.4 7.6002 33.6 8.0002 33C8.4002 32.6 8.8002 32.4 9.2002 32.2H9.6002C10.4002 32 11.0002 31.8 11.6002 31.6C12.6002 31 13.4002 30 13.8002 28.8H4.6002C4.2002 28.8 3.8002 28.8 3.4002 28.6C2.0002 28.2 1.2002 27 1.2002 25.6V9.6C1.2002 8.8 1.2002 7.6 2.2002 6.6C2.6002 6.2 3.4002 6 4.0002 6H19.4002C21.6002 6 22.6002 7.2 22.6002 9.8V28C22.6002 32 21.0002 35.6 18.0002 38.4L17.6002 38.8C15.8002 40.2 14.2002 41 12.4002 41.6C11.6002 41.8 10.6002 41.8 10.0002 42H9.6002ZM9.6002 40C10.4002 39.8 11.2002 39.8 11.8002 39.6C13.4002 39.2 14.8002 38.4 16.2002 37.2L16.6002 36.8C19.2002 34.4 20.6002 31.4 20.6002 27.8V9.6C20.6002 8 20.2002 8 19.6002 8H4.0002C3.8002 8 3.6002 8 3.4002 8.4C3.0002 8.6 3.0002 8.8 3.0002 9.8V25.8C3.0002 26.2 3.4002 26.6 3.8002 26.8H14.8002C15.2002 26.8 15.4002 27 15.6002 27.2C16.0002 27.4 16.0002 27.8 16.0002 28L15.8002 28.8C15.4002 30.8 14.2002 32.2 12.6002 33.2C11.8002 33.8 10.8002 34 10.0002 34.2H9.6002C9.6002 34.2 9.4002 34.2 9.4002 34.4V36.4L9.6002 40Z" fill="black"/>
<path d="M17.2001 28.8H6.6001C6.0001 28.8 5.6001 28.4 5.6001 27.8C5.6001 27.2 6.0001 26.8 6.6001 26.8H17.2001C17.8001 26.8 18.2001 27.2 18.2001 27.8C18.2001 28.4 17.8001 28.8 17.2001 28.8ZM34.0001 42C33.2001 42 32.4001 41.4 32.0001 40.6V34.8C32.0001 34.4 32.0001 33.6 32.4001 33C32.8001 32.6 33.2001 32.4 33.6001 32.2H34.0001C34.8001 32 35.4001 31.8 36.0001 31.6C37.0001 31 37.8001 30 38.2001 28.8H29.0001C28.6001 28.8 28.2001 28.8 27.8001 28.6C26.4001 28.2 25.6001 27 25.6001 25.6V9.59999C25.6001 8.79999 25.6001 7.59999 26.6001 6.59999C27.2001 5.99999 27.8001 5.79999 28.6001 5.79999H44.0001C46.2001 5.79999 47.2001 6.99999 47.2001 9.59999V27.8C47.2001 31.8 45.6001 35.4 42.6001 38.2L42.0001 38.6L41.8001 38.8C40.2001 40.2 38.4001 41 36.6001 41.4C35.8001 41.6 35.0001 41.8 34.2001 41.8C34.2001 42 34.0001 42 34.0001 42ZM34.0001 40C34.8001 39.8 35.6001 39.8 36.2001 39.6C37.8001 39.2 39.2001 38.4 40.6001 37.2L41.0001 36.8C43.6001 34.4 45.0001 31.4 45.0001 27.8V9.59999C45.0001 7.99999 44.6001 7.99999 43.8001 7.99999H28.4001C28.2001 7.99999 28.0001 7.99999 27.8001 8.19999C27.6001 8.39999 27.4001 8.79999 27.4001 9.59999V25.6C27.4001 26 27.8001 26.4 28.2001 26.6H39.2001C39.6001 26.6 39.8001 26.8 40.0001 27C40.2001 27.2 40.2001 27.6 40.2001 27.8L40.0001 28.6C39.6001 30.6 38.4001 32 36.8001 33C36.0001 33.4 35.2001 33.8 34.2001 34H33.8001C33.8001 34 33.6001 34 33.6001 34.2V35L34.0001 40Z" fill="black"/>
<path d="M41.6 28.8H31C30.4 28.8 30 28.4 30 27.8C30 27.2 30.4 26.8 31 26.8H41.6C42.2 26.8 42.6 27.2 42.6 27.8C42.6 28.4 42.2 28.8 41.6 28.8Z" fill="black"/>
</g>
</svg>
