<svg width="92" height="35" viewBox="0 0 92 35" fill="none" xmlns="http://www.w3.org/2000/svg">
<path d="M19.5233 0.519478H22.116V11.7374H19.5233C19.6247 5.50365 16.9758 2.28539 10.6953 2.28539C6.85305 2.28539 3.21983 4.77982 3.21983 8.98556C3.21983 17.9118 22.8991 13.1398 22.8991 25.8116C22.8991 31.6242 17.6061 35 12.2007 35C7.99808 35 4.77514 33.855 2.69879 30.0049H2.59583V34.4805H0V23.2626H2.59583C2.28383 28.6071 5.81253 32.7162 11.3193 32.7162C15.2661 32.7162 19.6777 30.6367 19.6777 25.8116C19.6777 16.3082 0 20.3595 0 8.98556C0 3.42731 5.19322 0 10.6953 0C13.9666 0 17.6061 1.09356 19.4203 3.95302H19.5233V0.519478Z" fill="#53616E" fill-opacity="0.8"/>
<path d="M42.8887 3.21616L35.8812 20.2497H49.7465L42.8887 3.21616ZM24.8755 32.1961H27.9877L41.1259 0.518936H44.9198L57.7929 32.1961H60.9082V34.48H49.3315V32.1961H54.5263L50.6294 22.5351H34.9437L31.0031 32.1961H36.1964V34.48H24.8755V32.1961Z" fill="#53616E" fill-opacity="0.8"/>
<path d="M65.4272 32.1971H71.1383V2.80686H60.8033V10.5943H58.2075V0.519913H86.9722V10.5943H84.378V2.80686H74.0461V32.1971H79.7573V34.481H65.4272V32.1971Z" fill="#53616E" fill-opacity="0.8"/>
<path d="M90.1316 1.84964C90.3749 1.84964 90.5528 1.8356 90.5528 1.57976C90.5528 1.37072 90.3859 1.33328 90.1753 1.33952H89.8258V1.84964H90.1316ZM89.5794 1.11956H90.2127C90.6261 1.11956 90.7993 1.26776 90.7993 1.5938C90.7993 1.91204 90.6589 2.01968 90.3703 2.06336L90.8476 2.79187H90.5606L90.1144 2.07116H89.8258V2.79187H89.5794V1.11956ZM91.2719 1.9526C91.2719 1.27712 90.8133 0.767003 90.1363 0.767003C89.4592 0.767003 89.0006 1.27712 89.0006 1.9526C89.0006 2.62963 89.4592 3.13975 90.1363 3.13975C90.8133 3.13975 91.2719 2.62963 91.2719 1.9526ZM88.7026 1.9526C88.7026 1.16168 89.3454 0.518964 90.1363 0.518964C90.9272 0.518964 91.5699 1.16168 91.5699 1.9526C91.5699 2.74351 90.9272 3.38623 90.1363 3.38623C89.3454 3.38623 88.7026 2.74351 88.7026 1.9526Z" fill="#53616E" fill-opacity="0.8"/>
</svg>
