<svg width="181" height="35" viewBox="0 0 181 35" fill="none" xmlns="http://www.w3.org/2000/svg">
<g clip-path="url(#clip0_57_1672)">
<path d="M32.1347 15.0166C32.1352 12.6168 33.8379 10.5921 37.8519 10.6209C40.6052 10.6565 41.4656 11.2681 41.4656 11.2681L40.515 13.7896C39.5717 13.4396 38.9563 13.1647 37.6631 13.1424C36.37 13.1201 35.2157 13.798 35.3372 14.5852C35.4958 15.5812 36.9687 16.0568 38.1485 16.6684C39.3284 17.2801 40.6818 18.354 40.6565 20.1608C40.665 23.7272 37.1056 24.7614 34.8854 24.8059C32.6653 24.8505 31.3041 24.2771 30.3818 23.7272L31.4336 21.2799C32.4937 21.6667 33.7286 22.2275 35.0944 22.244C36.4603 22.2605 37.3695 21.6834 37.3934 20.6799C37.4039 19.582 35.1854 18.736 34.5349 18.4146C33.8844 18.0932 32.1412 16.9974 32.1347 15.0166Z" fill="#53616E" fill-opacity="0.8"/>
<path d="M26.1133 24.5635L28.1972 13.3718H31.3001C31.8854 11.5434 32.9404 11.176 33.9698 10.729H22.3186L21.8037 13.3718H25.1027L23.0813 24.5635H26.1133Z" fill="#53616E" fill-opacity="0.8"/>
<path d="M9.8667 24.5635H19.0771L19.5347 21.9686H13.4326L14.0428 18.784H19.5156L19.9733 16.2097H14.5386L15.0344 13.3718H20.7933L21.3272 10.729H12.422L9.8667 24.5635Z" fill="#53616E" fill-opacity="0.8"/>
<path d="M16.1216 8.46766C16.1216 8.46766 23.203 -0.106097 35.8009 0.000994953C46.8095 0.0945786 51.26 6.39573 51.3994 12.5484C51.5365 18.603 44.3438 24.5634 44.3438 24.5634C44.3438 24.5634 47.9006 19.5483 47.8525 14.1121C47.7941 7.502 43.2699 2.67845 33.7033 2.51811C24.2124 2.35905 16.1216 8.46766 16.1216 8.46766Z" fill="#53616E" fill-opacity="0.8"/>
<path d="M17.531 4.69775C10.8405 6.83121 0.584617 14.0988 0.636426 22.5948C0.680115 29.7592 7.23517 34.9853 18.3273 35C35.3122 35.0224 44.0003 24.7923 44.0003 24.7923C44.0003 24.7923 35.2813 32.2679 20.8886 32.6854C14.0026 32.8851 4.26385 30.1068 4.41295 21.6635C4.5989 11.1334 17.531 4.69775 17.531 4.69775Z" fill="#53616E" fill-opacity="0.8"/>
<path d="M49.2264 27.5941H48.8376L48.6424 27.0121C48.6033 26.8966 48.5501 26.8096 48.4829 26.7513C48.4157 26.693 48.3256 26.6638 48.2124 26.6638H47.7585V27.5941H47.3999V25.313H48.3552C48.4694 25.313 48.5747 25.3237 48.671 25.345C48.7672 25.3663 48.85 25.4019 48.9193 25.4518C48.9886 25.5017 49.0425 25.5679 49.0812 25.6503C49.1198 25.7327 49.1391 25.8351 49.1391 25.9573C49.1391 26.1177 49.0981 26.2483 49.0161 26.3493C48.9341 26.4502 48.818 26.5158 48.6678 26.5461C48.7461 26.5786 48.8125 26.631 48.8669 26.7034C48.9214 26.7757 48.9688 26.8696 49.009 26.9852L49.2264 27.5941ZM47.7585 26.3408H48.3171C48.3964 26.3408 48.4647 26.3341 48.5218 26.3207C48.5789 26.3072 48.6257 26.2859 48.6622 26.2567C48.6987 26.2276 48.7257 26.1897 48.7432 26.1432C48.7606 26.0966 48.7693 26.0403 48.7693 25.9741C48.7693 25.8552 48.7358 25.7664 48.6686 25.7075C48.6014 25.6486 48.4969 25.6192 48.3552 25.6192H47.7585V26.3408Z" fill="#53616E" fill-opacity="0.8"/>
<path d="M50.1408 26.4688C50.1408 27.4798 49.3212 28.2994 48.3101 28.2994C47.2991 28.2994 46.4795 27.4798 46.4795 26.4688C46.4795 25.4578 47.2991 24.6382 48.3101 24.6382C49.3212 24.6382 50.1408 25.4578 50.1408 26.4688Z" stroke="#53616E" stroke-opacity="0.8"/>
<path d="M179.561 32.8661H179.173L178.977 32.284C178.938 32.1685 178.885 32.0816 178.818 32.0233C178.751 31.965 178.661 31.9358 178.547 31.9358H178.093V32.8661H177.735V30.585H178.69C178.804 30.585 178.91 30.5956 179.006 30.6169C179.102 30.6382 179.185 30.6738 179.254 30.7237C179.324 30.7737 179.378 30.8398 179.416 30.9223C179.455 31.0047 179.474 31.107 179.474 31.2293C179.474 31.3896 179.433 31.5203 179.351 31.6212C179.269 31.7222 179.153 31.7878 179.003 31.8181C179.081 31.8506 179.147 31.903 179.202 31.9753C179.256 32.0477 179.304 32.1416 179.344 32.2571L179.561 32.8661ZM178.093 31.6128H178.652C178.731 31.6128 178.8 31.6061 178.857 31.5926C178.914 31.5792 178.961 31.5579 178.997 31.5287C179.034 31.4995 179.061 31.4617 179.078 31.4152C179.096 31.3686 179.104 31.3123 179.104 31.2461C179.104 31.1272 179.071 31.0383 179.004 30.9795C178.936 30.9206 178.832 30.8911 178.69 30.8911H178.093V31.6128Z" fill="#53616E" fill-opacity="0.8"/>
<path d="M180.476 31.7413C180.476 32.7523 179.656 33.5719 178.645 33.5719C177.634 33.5719 176.814 32.7523 176.814 31.7413C176.814 30.7302 177.634 29.9106 178.645 29.9106C179.656 29.9106 180.476 30.7302 180.476 31.7413Z" stroke="#53616E" stroke-opacity="0.8"/>
<path d="M100.522 0.96582C88.8174 0.96582 83.1048 11.7281 83.2094 20.7614C83.3183 30.1638 89.8862 34.1371 95.9971 34.1365C108.045 34.135 113.123 23.3446 113.143 14.5611C113.157 8.35178 110.672 0.96582 100.522 0.96582ZM99.6946 5.63774C106.022 5.64605 107.215 10.3194 107.27 14.2875C107.355 20.4305 104.22 29.5732 96.8581 29.4979C90.4584 29.4324 89.1401 24.5267 89.1428 20.6012C89.1482 12.5629 93.594 5.62973 99.6946 5.63774Z" fill="#53616E" fill-opacity="0.8"/>
<path d="M71.6692 33.6389L76.7931 6.19847H85.6385L86.6093 1.37402H63.2013L62.3384 6.19847H71.1838L66.0599 33.6389H71.6692Z" fill="#53616E" fill-opacity="0.8"/>
<path d="M112.553 33.6389L118.755 1.37402H136.608L135.691 6.19847H123.34L121.776 14.6124H133.318L132.428 19.1969H120.925L119.133 28.8514H131.97L131.07 33.6389H112.553Z" fill="#53616E" fill-opacity="0.8"/>
<path d="M134.841 33.6389L141.017 1.37402H158.764L157.858 6.19847H145.673L143.916 15.2057H155.242L154.191 20.006H142.967L140.437 33.6389H134.841Z" fill="#53616E" fill-opacity="0.8"/>
<path d="M155.821 33.6389L161.962 1.37402H167.644L162.305 28.8514H174.967L174.089 33.6389H155.821Z" fill="#53616E" fill-opacity="0.8"/>
</g>
<defs>
<clipPath id="clip0_57_1672">
<rect width="179.946" height="35" fill="white" transform="translate(0.63623)"/>
</clipPath>
</defs>
</svg>
