<svg width="168" height="35" viewBox="0 0 168 35" fill="none" xmlns="http://www.w3.org/2000/svg">
<path fill-rule="evenodd" clip-rule="evenodd" d="M0.58252 10.8002H34.1813V0.600586H0.58252V10.8002ZM10.3822 35.0002H24.1821V13.4002H10.3822V35.0002ZM105.582 35.0002H119.582V0.600586H105.582V35.0002Z" fill="#53616E" fill-opacity="0.8"/>
<path fill-rule="evenodd" clip-rule="evenodd" d="M35.5816 13.4C35.1816 14.5998 35.1816 16 35.1816 17.4003C35.1816 27.2 42.9817 35 52.5819 35C62.3816 35 70.1816 27.2 70.1816 17.4003C70.1816 16 69.9812 14.5998 69.5813 13.2005L35.5816 13.4ZM68.7814 10.8C66.1814 4.40018 59.981 0 52.5819 0C45.3822 0 39.1819 4.40018 36.3824 10.5995L68.7814 10.8Z" fill="#53616E" fill-opacity="0.8"/>
<path fill-rule="evenodd" clip-rule="evenodd" d="M135.58 13.4H121.981C121.78 14.5998 121.582 16 121.582 17.4003C121.582 27.2 129.382 35 139.18 35C147.381 35 154.381 29.1996 156.18 21.4005H135.381L135.58 13.4ZM155.381 10.8C152.581 4.40018 146.38 0 139.18 0C131.78 0 125.581 4.40018 122.982 10.5995L155.381 10.8ZM166.58 2.40054C167.179 2.99995 167.38 3.60032 167.38 4.40018C167.38 5.20003 167.179 5.99989 166.58 6.60027C165.98 7.19967 165.18 7.39915 164.38 7.39915C163.58 7.39915 162.98 7.19967 162.38 6.60027C161.781 5.99989 161.58 5.20003 161.58 4.40018C161.58 3.60032 161.781 2.99995 162.38 2.40054C162.98 1.80016 163.58 1.40023 164.38 1.40023C165.18 1.40023 165.98 1.80016 166.58 2.40054ZM166.98 1.99964C166.182 1.40024 165.379 1.00031 164.381 1.00031C163.581 1.00031 162.78 1.40024 161.982 1.99964C161.662 2.31144 161.408 2.6849 161.236 3.09749C161.064 3.51007 160.978 3.95322 160.982 4.40018C160.982 5.40049 161.381 6.20034 161.982 6.80072C162.78 7.60058 163.581 7.80103 164.381 7.80103C165.379 7.80103 166.182 7.60058 166.98 6.80072C167.3 6.48893 167.554 6.11547 167.726 5.70288C167.898 5.29029 167.984 4.84713 167.98 4.40018C167.98 3.39987 167.581 2.601 166.98 1.99964ZM164.98 4.20071C164.78 4.40018 164.581 4.40018 164.381 4.40018H163.781V2.99994H164.381C164.581 2.99994 164.98 2.99995 165.181 3.2004C165.181 3.2004 165.379 3.40085 165.379 3.60032C165.379 4.00025 165.181 4.20071 164.98 4.20071ZM162.981 6.20034H163.78V4.80011H164.179C164.58 4.80011 164.779 4.80011 164.979 5.00056C165.18 5.00056 165.378 5.40048 165.378 5.80041V6.20034H165.98V5.59997C165.98 5.39951 165.779 5.20003 165.779 4.99958C165.579 4.79913 165.378 4.59966 165.18 4.59966C165.378 4.59966 165.579 4.3992 165.579 4.3992C165.98 4.19973 165.98 3.99927 165.98 3.59935C165.98 3.19942 165.779 2.7995 165.378 2.60002H162.98V6.20034H162.981ZM71.9819 10.8H102.38V0.600386H71.9819V10.8ZM71.9819 35H102.38V24.7994H85.9813V22.4008H102.38V13.2005H71.9819V35Z" fill="#53616E" fill-opacity="0.8"/>
</svg>
