<svg width="27" height="22" viewBox="0 0 27 22" fill="none" xmlns="http://www.w3.org/2000/svg">
<path d="M26.8889 2.60446C25.889 3.04615 24.8235 3.33892 23.7126 3.48108C24.8554 2.794 25.7276 1.71431 26.1377 0.412923C25.0722 1.05262 23.8958 1.50446 22.6421 1.75662C21.6304 0.671846 20.1885 0 18.6155 0C15.5636 0 13.1067 2.49446 13.1067 5.55246C13.1067 5.99246 13.1436 6.41554 13.2344 6.81831C8.6515 6.59323 4.59632 4.38138 1.87214 1.012C1.39654 1.84292 1.11757 2.794 1.11757 3.81785C1.11757 5.74031 2.10069 7.44446 3.56614 8.43108C2.68049 8.41415 1.81164 8.15523 1.07556 7.74738C1.07556 7.76431 1.07556 7.78631 1.07556 7.80831C1.07556 10.5058 2.98635 12.7465 5.49206 13.2626C5.04335 13.3862 4.55431 13.4454 4.04678 13.4454C3.69386 13.4454 3.33758 13.4251 3.00315 13.3506C3.71739 15.5489 5.74414 17.1651 8.15405 17.2175C6.27855 18.6949 3.89721 19.5851 1.31924 19.5851C0.867167 19.5851 0.433583 19.5648 0 19.5089C2.44185 21.0946 5.33576 22 8.45655 22C18.6004 22 24.1462 13.5385 24.1462 6.204C24.1462 5.95862 24.1378 5.72169 24.1261 5.48646C25.2201 4.70462 26.1394 3.72815 26.8889 2.60446Z" fill="#424242"/>
</svg>
