<svg width="31" height="22" viewBox="0 0 31 22" fill="none" xmlns="http://www.w3.org/2000/svg">
<path fill-rule="evenodd" clip-rule="evenodd" d="M3.90532 21.35C3.38231 21.1798 2.90509 20.877 2.51395 20.4671C2.1228 20.0573 1.82921 19.5524 1.65793 18.9951C0.679233 16.1148 0.389247 4.0875 2.27415 1.71317C2.90149 0.940791 3.78719 0.465254 4.73903 0.38978C9.79566 -0.19407 25.4186 -0.116222 27.2129 0.584398C27.7176 0.760207 28.1787 1.05638 28.5616 1.45071C28.9445 1.84505 29.2394 2.32733 29.4241 2.86141C30.4934 5.83905 30.5296 16.6597 29.2791 19.5206C28.9473 20.2653 28.392 20.8685 27.7023 21.2332C25.8174 22.2452 6.40645 22.2258 3.90532 21.35ZM11.9343 15.7061L20.9964 10.6461L11.9343 5.54712V15.7061Z" fill="#424242"/>
</svg>
